<?xml version="1.0" standalone="no"?>
<!DOCTYPE svg PUBLIC "-//W3C//DTD SVG 1.1//EN" "http://www.w3.org/Graphics/SVG/1.1/DTD/svg11.dtd" >
<svg>
<metadata>
Created by FontForge 20090622 at Mon Feb 22 17:23:59 2016
 By deploy user
</metadata>
<defs>
<font id="OstrichSans-Light" horiz-adv-x="833" >
  <font-face 
    font-family="Ostrich Sans Light"
    font-weight="300"
    font-stretch="normal"
    units-per-em="1000"
    panose-1="0 0 4 0 0 0 0 0 0 0"
    ascent="750"
    descent="-250"
    x-height="647"
    cap-height="647"
    bbox="-13 -40 579 649"
    underline-thickness="50"
    underline-position="-25"
    unicode-range="U+000D-U+2122"
  />
<missing-glyph horiz-adv-x="210" 
 />
    <glyph glyph-name=".notdef" horiz-adv-x="210" 
 />
    <glyph glyph-name=".null" horiz-adv-x="0" 
 />
    <glyph glyph-name="nonmarkingreturn" horiz-adv-x="333" 
 />
    <glyph glyph-name="CR" unicode="&#xd;" horiz-adv-x="210" 
 />
    <glyph glyph-name="space" unicode=" " horiz-adv-x="210" 
 />
    <glyph glyph-name="exclam" unicode="!" horiz-adv-x="49" 
d="M9 98v550h-5v-550h5zM9 16h-5v-16h5v16z" />
    <glyph glyph-name="quotedbl" unicode="&#x22;" horiz-adv-x="125" 
d="M6 640h-5v-62h5v62zM66 578v62h-5v-62h5z" />
    <glyph glyph-name="numbersign" unicode="#" horiz-adv-x="508" 
d="M154 226h169l-45 -226h5l44 226h130v5h-129l36 185h125v4h-124l45 228h-5l-44 -228h-169l44 228h-4l-45 -228h-149v-4h148l-36 -185h-144v-5h143l-44 -226h4zM324 231h-169l36 185h169z" />
    <glyph glyph-name="dollar" unicode="$" horiz-adv-x="289" 
d="M228 179v13q-4 50 -37 85q-17 16 -59 37q-2 1 -4 2.5t-3 1.5l-6 3v273q104 0 104 -136v-2h5v2q0 140 -109 141v49h-5v-49q-50 -1 -79 -38.5t-30 -100.5v-4q0 -55 35 -90q20 -21 60 -40l7 -3.5t7 -4.5v-265q-52 2 -78 35t-26 101v3h-5v-3q0 -139 109 -140v-49h5v49
q48 1 77 35.5t32 94.5zM114 594v-270q-1 1 -5 3l-7 3q-38 18 -59 40q-33 33 -33 88q0 62 28 98.5t76 37.5zM119 316l11 -6q38 -18 59 -39q34 -34 34 -86q-1 -60 -28.5 -95t-75.5 -37v263z" />
    <glyph glyph-name="percent" unicode="%" horiz-adv-x="451" 
d="M97 0h5l238 648h-5zM92 358h5q33 2 49.5 24.5t16.5 54.5v86q0 32 -16.5 54.5t-49.5 23.5h-5q-31 -1 -48 -22.5t-18 -53.5v-88q0 -31 17 -54t49 -25zM31 437v86q0 30 16.5 51.5t47.5 21.5t47.5 -21.5t16.5 -51.5v-86q0 -30 -16.5 -52t-47.5 -22t-47.5 22t-16.5 52z
M337 288v-1q-32 -1 -48.5 -22.5t-17.5 -52.5v-89q0 -32 16.5 -54.5t49.5 -23.5h5q32 1 49 23.5t17 54.5v86q0 32 -17 54.5t-49 23.5v1h-5zM403 209v-86q0 -30 -16.5 -51.5t-47.5 -21.5t-47 21.5t-16 51.5v86q0 31 16 52.5t47 21.5t47.5 -22t16.5 -52z" />
    <glyph glyph-name="ampersand" unicode="&#x26;" horiz-adv-x="380" 
d="M140 0h5q105 1 151 85l49 -85h5l-52 89q1 1 3 5q0 2 2 4q29 66 29 177v3h-5v-3q0 -110 -29 -175q-1 -1 -1 -3t-1 -3l-150 257l4 5l9 9q11 13 20 28q35 59 35 131q0 12 -2 44q-8 80 -69 80q-38 0 -55 -30t-17 -94q0 -28 10 -55q17 -53 44 -94q11 -19 15 -23
q-19 -19 -44 -39q-46 -38 -63 -64q-28 -41 -28 -96q0 -66 36 -108q37 -43 99 -45zM76 524q0 63 16 91t51 28q40 0 55 -36q11 -27 11 -83q0 -39 -9 -68q-17 -58 -42 -84q-7 -9 -15 -17q-28 45 -37 64q-30 60 -30 105zM142 348l151 -259q-45 -84 -150 -84q-60 0 -96.5 41
t-36.5 107q0 55 27 93q17 26 62 63q20 16 43 39z" />
    <glyph glyph-name="quotesingle" unicode="'" horiz-adv-x="49" 
d="M6 578v62h-5v-62h5z" />
    <glyph glyph-name="parenleft" unicode="(" horiz-adv-x="115" 
d="M93 4l-2 1q-3 2 -14 13q-16 18 -30 47q-43 92 -43 258q0 165 43 260q6 12 16 29q17 24 28 32l2 1l-3 4l-2 -1l-14 -14q-16 -16 -31 -49q-44 -97 -44 -262q0 -166 44 -261q16 -34 31 -47l14 -14l2 -1z" />
    <glyph glyph-name="parenright" unicode=")" horiz-adv-x="101" 
d="M6 0l2 1l2 2q2 2 5.5 5t7.5 7q13 12 30 47q19 35 31 95q14 75 14 166q0 168 -45 262q-16 35 -30 49q-4 4 -7.5 7t-5.5 5l-2 2l-2 1l-2 -4l2 -1q3 -2 14 -13q18 -24 29 -48q44 -97 44 -260t-44 -258q-9 -19 -15 -28q-12 -20 -28 -32l-2 -1z" />
    <glyph glyph-name="asterisk" unicode="*" horiz-adv-x="223" 
d="M216 569l-102 -38v109h-5v-109l-102 38l-2 -5l103 -38l-77 -86l4 -3l77 87l76 -87l4 3l-76 86l102 38z" />
    <glyph glyph-name="plus" unicode="+" horiz-adv-x="320" 
d="M152 326v146h-5v-146h-146v-5h146v-146h5v146h146v5h-146z" />
    <glyph glyph-name="comma" unicode="," horiz-adv-x="53" 
d="M12 -40v56h-5v-56h5z" />
    <glyph glyph-name="hyphen" unicode="-" horiz-adv-x="233" 
d="M228 321v5h-218v-5h218z" />
    <glyph glyph-name="period" unicode="." horiz-adv-x="61" 
d="M13 0v16h-5v-16h5z" />
    <glyph glyph-name="slash" unicode="/" horiz-adv-x="299" 
d="M249 647h-5l-238 -647h5z" />
    <glyph glyph-name="zero" unicode="0" horiz-adv-x="308" 
d="M226 168v313q0 80 -28 123t-84 43q-111 0 -111 -166v-313q0 -168 111 -168q112 0 112 168zM221 481v-313q0 -163 -107 -163q-106 0 -106 163v313q0 162 106 162q107 0 107 -162z" />
    <glyph glyph-name="one" unicode="1" horiz-adv-x="178" 
d="M2 530l4 -3l92 112v-639h5v647h-3z" />
    <glyph glyph-name="two" unicode="2" horiz-adv-x="291" 
d="M232 5h-218q0 72 29 135q16 35 79 132q16 23 20 28q12 16 18 25q34 44 49 75q22 43 23 93v14q-3 65 -33 102.5t-78 37.5q-112 0 -112 -151v-3h5v3q0 147 107 147q48 0 76.5 -38.5t29.5 -104.5q0 -49 -21 -96q-15 -32 -50 -76l-18 -26q-12 -18 -19 -27q-59 -87 -79 -133
q-31 -67 -31 -140v-2h223v5z" />
    <glyph glyph-name="three" unicode="3" horiz-adv-x="275" 
d="M227 479v14q-5 67 -28 104q-30 50 -83 50q-112 0 -112 -166v-2h5v2q0 162 107 162q49 0 77.5 -45t28.5 -112q-1 -76 -50 -123q-39 -38 -83 -38h-46v-4h46q44 0 86 -40q46 -50 47 -121q0 -65 -27 -108q-29 -47 -79 -47q-107 0 -107 160v2h-5v-2q0 -165 112 -165
q52 0 83 49q23 36 28 104v14q-4 72 -49 117q-29 31 -68 39q39 8 68 39q45 45 49 117z" />
    <glyph glyph-name="four" unicode="4" horiz-adv-x="312" 
d="M4 206h240v-206h5v647h-4l-241 -436v-5zM244 636v-426h-235z" />
    <glyph glyph-name="five" unicode="5" horiz-adv-x="287" 
d="M230 647h-223v-417h5v4q0 71 29 112.5t77 41.5q107 0 107 -154v-72q0 -69 -28.5 -113t-78.5 -44q-106 0 -106 157v3h-5v-3q0 -162 111 -162q53 0 84 49q28 41 28 113v72q0 159 -112 159q-41 0 -68.5 -28t-37.5 -79v357h218v4z" />
    <glyph glyph-name="six" unicode="6" horiz-adv-x="279" 
d="M5 441v-299q0 -67 28.5 -104.5t82.5 -37.5q51 0 81.5 45t30.5 120v74q0 164 -112 164q-41 0 -68.5 -29.5t-37.5 -81.5v149q0 202 106 202q52 0 79.5 -37.5t27.5 -107.5v-2h5v2q0 69 -29 109t-80 40h-5q-109 -2 -109 -206zM10 142v98q0 72 29 115.5t77 43.5
q107 0 107 -160v-74q0 -74 -29 -117t-78 -43q-51 0 -78.5 35.5t-27.5 101.5z" />
    <glyph glyph-name="seven" unicode="7" horiz-adv-x="352" 
d="M13 642h305l-268 -643h5l269 644v4h-311v-5z" />
    <glyph glyph-name="eight" unicode="8" horiz-adv-x="303" 
d="M248 477v15q-6 155 -120 155h-4q-114 0 -120 -155v-15q3 -73 26 -108.5t68 -44.5q-89 -17 -94 -153v-16q6 -155 120 -155h4q114 0 120 155v16q-5 136 -94 153q45 9 68 44.5t26 108.5zM126 326q-60 0 -88 39t-29 120q2 158 117 158t117 -158q-1 -81 -29 -120t-88 -39z
M243 163q-1 -81 -29 -119.5t-88 -38.5t-88 38.5t-29 119.5q1 81 29 120t88 39t88 -39t29 -120z" />
    <glyph glyph-name="nine" unicode="9" horiz-adv-x="291" 
d="M226 206v299q0 67 -28.5 104.5t-83.5 37.5q-51 0 -81 -44.5t-30 -119.5v-74q0 -165 111 -165q42 0 69.5 29.5t37.5 81.5v-149q0 -201 -107 -201q-51 0 -78.5 37t-27.5 108v2h-5v-2q0 -145 109 -150h5q109 2 109 206zM221 505v-98q0 -72 -29 -115t-78 -43q-106 0 -106 160
v74q0 73 29 116.5t77 43.5q51 0 79 -36t28 -102z" />
    <glyph glyph-name="colon" unicode=":" 
d="M13 438v50h-5v-50h5zM13 212h-5v-49h5v49z" />
    <glyph glyph-name="semicolon" unicode=";" horiz-adv-x="69" 
d="M11 438v50h-5v-50h5zM11 212h-5v-85h5v85z" />
    <glyph glyph-name="less" unicode="&#x3c;" 
 />
    <glyph glyph-name="equal" unicode="=" horiz-adv-x="283" 
d="M10 416v-5h218v5h-218zM10 216v-5h218v5h-218z" />
    <glyph glyph-name="greater" unicode="&#x3e;" 
 />
    <glyph glyph-name="question" unicode="?" horiz-adv-x="259" 
d="M230 496v3q-2 64 -31 106t-80 42q-111 0 -111 -159v-2h5v2q0 155 106 155q52 0 80 -46q25 -40 27 -105q-1 -58 -38 -115q-20 -31 -59 -70q-2 -3 -6 -7l-5 -5q-11 -13 -17 -32q-11 -37 -11 -92v-47v-25h5v25v47q0 17 2 47q5 54 24 74l12 12q36 36 58 69q35 52 39 113v3
q0 1 1 2v1v2q-1 0 -1 2zM95 0v16h-5v-16h5z" />
    <glyph glyph-name="at" unicode="@" horiz-adv-x="603" 
d="M374 444v-3q-1 -2 -1.5 -6.5t-0.5 -6.5q-2 -15 -6 -33q-3 24 -22 37q-21 15 -70 15q-50 0 -76.5 -28.5t-33.5 -86.5q-8 -57 13.5 -82.5t71.5 -25.5q25 0 44 3q38 6 55 59q-4 -27 -5 -36l-4 -23q-6 -38 30 -47q38 -11 95 17q58 28 79 78q22 51 17 123q-4 67 -35 117
q-42 65 -116 92.5t-158 10.5q-88 -18 -155 -85q-70 -70 -89 -182q-31 -195 117 -286q78 -49 186 -49h21q116 6 204 69l2 2l-3 4l-1 -2q-85 -62 -202 -67q-120 -7 -205 47q-145 87 -114 281q18 114 93 185q60 58 147 78q79 17 155 -10q72 -26 114 -90q29 -45 34 -113
q5 -70 -17 -123q-18 -42 -64 -69q-43 -26 -84 -26q-6 0 -20 2q-11 3 -20 12q-3 3 -4.5 7t-2 7.5t0 9.5t1 9.5t1.5 11.5t2 12q5 32 7 43q2 15 8 49l3.5 22t4.5 25q3 22 6 35l2 14v2zM249 229q-48 0 -67.5 23.5t-12.5 79.5q13 111 105 111q45 0 67 -15q27 -16 19 -69
q-15 -88 -39 -112q-18 -18 -72 -18z" />
    <glyph glyph-name="A" unicode="A" horiz-adv-x="372" 
d="M257 205l48 -205h5l-150 647h-4l-150 -647h5l47 205h199zM60 210l98 424l98 -424h-196z" />
    <glyph glyph-name="B" unicode="B" horiz-adv-x="291" 
d="M241 477v16q-4 73 -32 112q-35 42 -104 42h-97v-647h97q69 0 104 42q28 39 32 112v16q-3 72 -32 113q-28 33 -73 41q46 7 73 40q29 41 32 113zM12 326v317h93q129 0 131 -158q-1 -159 -131 -159h-93zM12 322h93q130 0 131 -160q-2 -158 -131 -158h-93v318z" />
    <glyph glyph-name="C" unicode="C" horiz-adv-x="324" 
d="M265 480v2q0 164 -127 165h-5q-126 -1 -128 -162v-319q0 -164 128 -166h5q127 1 127 166v2h-5v-2q0 -162 -125 -162t-125 162v316q0 161 125 161t125 -161v-2h5z" />
    <glyph glyph-name="D" unicode="D" horiz-adv-x="303" 
d="M248 168v311q0 85 -34 125q-36 43 -108 43h-102v-647h102q142 0 142 168zM243 479v-311q0 -164 -137 -164h-98v639h98q137 0 137 -164z" />
    <glyph glyph-name="E" unicode="E" horiz-adv-x="259" 
d="M219 647h-215v-647h215v4h-211v318h211v4h-211v317h211v4z" />
    <glyph glyph-name="F" unicode="F" horiz-adv-x="255" 
d="M221 647h-215v-647h4v322h211v4h-211v317h211v4z" />
    <glyph glyph-name="G" unicode="G" horiz-adv-x="324" 
d="M267 481v2q0 164 -131 164q-130 0 -130 -161v-321q0 -165 130 -165q131 0 131 165v106h-151v-5h146v-101q0 -161 -126 -161t-126 161v318q0 80 32 121q33 39 94 39q126 0 126 -160v-2h5z" />
    <glyph glyph-name="H" unicode="H" horiz-adv-x="320" 
d="M241 326h-232v321h-4v-647h4v321h232v-321h5v647h-5v-321z" />
    <glyph glyph-name="I" unicode="I" horiz-adv-x="101" 
d="M29 0v647h-5v-647h5z" />
    <glyph glyph-name="J" unicode="J" horiz-adv-x="308" 
d="M242 647v-496q0 -73 -29 -111q-30 -36 -87 -36q-56 0 -86 36q-29 38 -29 111v3h-5v-3q0 -151 120 -151q121 0 121 151v496h-5z" />
    <glyph glyph-name="K" unicode="K" horiz-adv-x="316" 
d="M91 353l200 295h-5l-200 -293l-1 -1l-76 -111v405h-4v-647h4v234l79 114l199 -349h5z" />
    <glyph glyph-name="L" unicode="L" horiz-adv-x="267" 
d="M10 648h-4v-648h231v5h-227v643z" />
    <glyph glyph-name="M" unicode="M" horiz-adv-x="449" 
d="M192 11l-183 637h-4v-647h5v628l180 -629h4l180 629v-628h5v647h-4z" />
    <glyph glyph-name="N" unicode="N" horiz-adv-x="344" 
d="M264 15l-255 633h-4v-647h5v633l255 -634h4v648h-5v-633z" />
    <glyph glyph-name="O" unicode="O" horiz-adv-x="332" 
d="M3 483v-318q0 -165 131 -165q130 0 130 165v318q0 164 -130 164q-131 0 -131 -164zM8 165v318q0 160 126 160q125 0 125 -160v-318q0 -161 -125 -161q-126 0 -126 161z" />
    <glyph glyph-name="P" unicode="P" horiz-adv-x="312" 
d="M256 490v3q-2 154 -142 154h-108v-647h4v321h104q140 0 142 156v3q0 2 1 3v2v2q-1 1 -1 3zM10 643h104q69 0 102.5 -38.5t35.5 -119.5q-2 -81 -35.5 -120t-102.5 -39h-104v317z" />
    <glyph glyph-name="Q" unicode="Q" horiz-adv-x="340" 
d="M274 -26l-49 60q41 44 41 135v316q0 83 -33 122q-31 40 -97 40t-97 -40q-33 -39 -33 -122v-316q0 -169 130 -169q54 0 85 30l47 -56h6zM174 88l45 -54q-31 -30 -83 -30q-125 0 -125 165v316q0 158 125 158t125 -158v-316q0 -79 -32 -123l-3 -4q-1 -2 -4 -5l-42 51h-6z
" />
    <glyph glyph-name="R" unicode="R" horiz-adv-x="332" 
d="M257 0v176q-2 123 -112 142q109 15 110 156v16q-2 81 -37 119t-105 38h-108v-647h5v316h103q66 0 102.5 -38t36.5 -105v-173h5zM10 320v323h103q136 0 138 -160q-1 -84 -34.5 -123.5t-103.5 -39.5h-103z" />
    <glyph glyph-name="S" unicode="S" horiz-adv-x="320" 
d="M266 161v6q-4 65 -51 109q-23 21 -72 42l-14 6q-47 19 -74 46q-46 44 -46 112q0 73 34.5 117t92.5 44q126 0 126 -161v-3h5v3q0 165 -131 165q-60 0 -95 -44t-36 -119v-5q0 -69 47 -113q27 -27 75 -46l15 -7q48 -21 72 -43q47 -43 48 -111q-2 -72 -35.5 -113.5
t-90.5 -41.5q-127 0 -127 160v3h-4v-3q0 -164 131 -164q60 0 94 43t36 110v3q0 1 1 2v2q-1 0 -1 1z" />
    <glyph glyph-name="T" unicode="T" horiz-adv-x="360" 
d="M5 647v-4h162v-643h4v643h162v4h-328z" />
    <glyph glyph-name="U" unicode="U" horiz-adv-x="336" 
d="M240 647v-495q0 -148 -115 -148q-116 0 -116 148v495h-4v-495q0 -151 118 -152h4q118 1 118 152v495h-5z" />
    <glyph glyph-name="V" unicode="V" horiz-adv-x="380" 
d="M171 13l-159 635h-5l163 -648h3l162 648h-5z" />
    <glyph glyph-name="W" unicode="W" horiz-adv-x="639" 
d="M434 14l-140 634h-4l-140 -634l-139 634h-5l143 -648h3l140 635l140 -635h4l143 648h-5z" />
    <glyph glyph-name="X" unicode="X" horiz-adv-x="364" 
d="M14 0l150 318l150 -318h5l-153 324l152 323h-5l-149 -318l-151 318h-5l153 -323l-153 -324h6z" />
    <glyph glyph-name="Y" unicode="Y" horiz-adv-x="372" 
d="M168 328l-175 319h-6l179 -324v-323h5v323l179 324h-6z" />
    <glyph glyph-name="Z" unicode="Z" horiz-adv-x="376" 
d="M312 642v5h-305v-4h300l-299 -638v-5h305v4h-300z" />
    <glyph glyph-name="bracketleft" unicode="[" 
 />
    <glyph glyph-name="backslash" unicode="\" horiz-adv-x="299" 
d="M15 647h-5l238 -647h5z" />
    <glyph glyph-name="bracketright" unicode="]" 
 />
    <glyph glyph-name="asciicircum" unicode="^" 
 />
    <glyph glyph-name="underscore" unicode="_" horiz-adv-x="409" 
d="M384 -5v5h-377v-5h377z" />
    <glyph glyph-name="a" unicode="a" horiz-adv-x="372" 
d="M257 205l48 -205h5l-150 647h-4l-150 -647h5l47 205h199zM60 210l98 424l98 -424h-196z" />
    <glyph glyph-name="b" unicode="b" horiz-adv-x="291" 
d="M241 477v16q-4 73 -32 112q-35 42 -104 42h-97v-647h97q69 0 104 42q28 39 32 112v16q-3 72 -32 113q-28 33 -73 41q46 7 73 40q29 41 32 113zM12 326v317h93q129 0 131 -158q-1 -159 -131 -159h-93zM12 322h93q130 0 131 -160q-2 -158 -131 -158h-93v318z" />
    <glyph glyph-name="c" unicode="c" horiz-adv-x="324" 
d="M265 480v2q0 164 -127 165h-5q-126 -1 -128 -162v-319q0 -164 128 -166h5q127 1 127 166v2h-5v-2q0 -162 -125 -162t-125 162v316q0 161 125 161t125 -161v-2h5z" />
    <glyph glyph-name="d" unicode="d" horiz-adv-x="303" 
d="M248 168v311q0 85 -34 125q-36 43 -108 43h-102v-647h102q142 0 142 168zM243 479v-311q0 -164 -137 -164h-98v639h98q137 0 137 -164z" />
    <glyph glyph-name="e" unicode="e" horiz-adv-x="259" 
d="M219 647h-215v-647h215v4h-211v318h211v4h-211v317h211v4z" />
    <glyph glyph-name="f" unicode="f" horiz-adv-x="255" 
d="M221 647h-215v-647h4v322h211v4h-211v317h211v4z" />
    <glyph glyph-name="g" unicode="g" horiz-adv-x="324" 
d="M267 481v2q0 164 -131 164q-130 0 -130 -161v-321q0 -165 130 -165q131 0 131 165v106h-151v-5h146v-101q0 -161 -126 -161t-126 161v318q0 80 32 121q33 39 94 39q126 0 126 -160v-2h5z" />
    <glyph glyph-name="h" unicode="h" horiz-adv-x="320" 
d="M241 326h-232v321h-4v-647h4v321h232v-321h5v647h-5v-321z" />
    <glyph glyph-name="i" unicode="i" horiz-adv-x="101" 
d="M29 0v647h-5v-647h5z" />
    <glyph glyph-name="j" unicode="j" horiz-adv-x="308" 
d="M242 647v-496q0 -73 -29 -111q-30 -36 -87 -36q-56 0 -86 36q-29 38 -29 111v3h-5v-3q0 -151 120 -151q121 0 121 151v496h-5z" />
    <glyph glyph-name="k" unicode="k" horiz-adv-x="316" 
d="M91 353l200 295h-5l-200 -293l-1 -1l-76 -111v405h-4v-647h4v234l79 114l199 -349h5z" />
    <glyph glyph-name="l" unicode="l" horiz-adv-x="267" 
d="M10 648h-4v-648h231v5h-227v643z" />
    <glyph glyph-name="m" unicode="m" horiz-adv-x="449" 
d="M192 11l-183 637h-4v-647h5v628l180 -629h4l180 629v-628h5v647h-4z" />
    <glyph glyph-name="n" unicode="n" horiz-adv-x="344" 
d="M264 15l-255 633h-4v-647h5v633l255 -634h4v648h-5v-633z" />
    <glyph glyph-name="o" unicode="o" horiz-adv-x="332" 
d="M3 483v-318q0 -165 131 -165q130 0 130 165v318q0 164 -130 164q-131 0 -131 -164zM8 165v318q0 160 126 160q125 0 125 -160v-318q0 -161 -125 -161q-126 0 -126 161z" />
    <glyph glyph-name="p" unicode="p" horiz-adv-x="312" 
d="M256 490v3q-2 154 -142 154h-108v-647h4v321h104q140 0 142 156v3q0 2 1 3v2v2q-1 1 -1 3zM10 643h104q69 0 102.5 -38.5t35.5 -119.5q-2 -81 -35.5 -120t-102.5 -39h-104v317z" />
    <glyph glyph-name="q" unicode="q" horiz-adv-x="340" 
d="M274 -26l-49 60q41 44 41 135v316q0 83 -33 122q-31 40 -97 40t-97 -40q-33 -39 -33 -122v-316q0 -169 130 -169q54 0 85 30l47 -56h6zM174 88l45 -54q-31 -30 -83 -30q-125 0 -125 165v316q0 158 125 158t125 -158v-316q0 -79 -32 -123l-3 -4q-1 -2 -4 -5l-42 51h-6z
" />
    <glyph glyph-name="r" unicode="r" horiz-adv-x="332" 
d="M257 0v176q-2 123 -112 142q109 15 110 156v16q-2 81 -37 119t-105 38h-108v-647h5v316h103q66 0 102.5 -38t36.5 -105v-173h5zM10 320v323h103q136 0 138 -160q-1 -84 -34.5 -123.5t-103.5 -39.5h-103z" />
    <glyph glyph-name="s" unicode="s" horiz-adv-x="320" 
d="M266 161v6q-4 65 -51 109q-23 21 -72 42l-14 6q-47 19 -74 46q-46 44 -46 112q0 73 34.5 117t92.5 44q126 0 126 -161v-3h5v3q0 165 -131 165q-60 0 -95 -44t-36 -119v-5q0 -69 47 -113q27 -27 75 -46l15 -7q48 -21 72 -43q47 -43 48 -111q-2 -72 -35.5 -113.5
t-90.5 -41.5q-127 0 -127 160v3h-4v-3q0 -164 131 -164q60 0 94 43t36 110v3q0 1 1 2v2q-1 0 -1 1z" />
    <glyph glyph-name="t" unicode="t" horiz-adv-x="360" 
d="M5 647v-4h162v-643h4v643h162v4h-328z" />
    <glyph glyph-name="u" unicode="u" horiz-adv-x="336" 
d="M240 647v-495q0 -148 -115 -148q-116 0 -116 148v495h-4v-495q0 -151 118 -152h4q118 1 118 152v495h-5z" />
    <glyph glyph-name="v" unicode="v" horiz-adv-x="380" 
d="M171 13l-159 635h-5l163 -648h3l162 648h-5z" />
    <glyph glyph-name="w" unicode="w" horiz-adv-x="639" 
d="M434 14l-140 634h-4l-140 -634l-139 634h-5l143 -648h3l140 635l140 -635h4l143 648h-5z" />
    <glyph glyph-name="x" unicode="x" horiz-adv-x="364" 
d="M14 0l150 318l150 -318h5l-153 324l152 323h-5l-149 -318l-151 318h-5l153 -323l-153 -324h6z" />
    <glyph glyph-name="y" unicode="y" horiz-adv-x="372" 
d="M168 328l-175 319h-6l179 -324v-323h5v323l179 324h-6z" />
    <glyph glyph-name="z" unicode="z" horiz-adv-x="376" 
d="M312 642v5h-305v-4h300l-299 -638v-5h305v4h-300z" />
    <glyph glyph-name="braceleft" unicode="{" 
 />
    <glyph glyph-name="bar" unicode="|" horiz-adv-x="89" 
d="M18 0v647h-5v-647h5z" />
    <glyph glyph-name="braceright" unicode="}" 
 />
    <glyph glyph-name="asciitilde" unicode="~" 
 />
    <glyph glyph-name="copyright" unicode="&#xa9;" 
 />
    <glyph glyph-name="registered" unicode="&#xae;" 
 />
    <glyph glyph-name="dotlessi" unicode="&#x131;" horiz-adv-x="101" 
d="M29 0v647h-5v-647h5z" />
    <glyph glyph-name="circumflex" unicode="&#x2c6;" 
 />
    <glyph glyph-name="caron" unicode="&#x2c7;" 
 />
    <glyph glyph-name="breve" unicode="&#x2d8;" 
 />
    <glyph glyph-name="dotaccent" unicode="&#x2d9;" 
 />
    <glyph glyph-name="ring" unicode="&#x2da;" 
 />
    <glyph glyph-name="ogonek" unicode="&#x2db;" 
 />
    <glyph glyph-name="tilde" unicode="&#x2dc;" 
 />
    <glyph glyph-name="hungarumlaut" unicode="&#x2dd;" 
 />
    <glyph glyph-name="endash" unicode="&#x2013;" horiz-adv-x="233" 
d="M228 321v5h-218v-5h218z" />
    <glyph glyph-name="emdash" unicode="&#x2014;" horiz-adv-x="233" 
d="M228 321v5h-218v-5h218z" />
    <glyph glyph-name="quoteleft" unicode="&#x2018;" horiz-adv-x="49" 
d="M6 578v62h-5v-62h5z" />
    <glyph glyph-name="quoteright" unicode="&#x2019;" horiz-adv-x="49" 
d="M6 578v62h-5v-62h5z" />
    <glyph glyph-name="quotedblleft" unicode="&#x201c;" horiz-adv-x="125" 
d="M6 640h-5v-62h5v62zM66 578v62h-5v-62h5z" />
    <glyph glyph-name="quotedblright" unicode="&#x201d;" horiz-adv-x="125" 
d="M6 640h-5v-62h5v62zM66 578v62h-5v-62h5z" />
    <glyph glyph-name="bullet" unicode="&#x2022;" 
 />
    <glyph glyph-name="trademark" unicode="&#x2122;" horiz-adv-x="809" 
 />
    <glyph glyph-name="g115" horiz-adv-x="0" 
 />
  </font>
</defs>
</svg>
