<svg xmlns="http://www.w3.org/2000/svg" viewBox="0 0 1000 1000" enable-background="new 0 0 1000 1000"><path fill="none" stroke="#000" stroke-miterlimit="10" d="M887 500H113"/><path fill="none" stroke="#000" stroke-miterlimit="10" d="M887 533v-66"/><path fill="none" stroke="#000" stroke-miterlimit="10" d="M113 533v-66"/><text transform="translate(101 573)" font-family="'MyriadPro-Regular'" font-size="48">0</text><text transform="translate(855 573)" font-family="'MyriadPro-Regular'" font-size="48">10</text><g fill-rule="evenodd" clip-rule="evenodd"><path fill="none" d="M364.4 656.4c-1.2.6-2.4 1.2-3.3 2.3-.2.2-.4.4-.7.6l-2.1 1.2c-1.6.9-3.3 1.9-5 2.6-.1.1-.2.1-.3.2-.3.2-.5.5-.3.9s.5.2.8.1c2.3-1 4.6-2 6.7-3.4 2.4-1.5 5-2.5 7.7-3.1 1.8-.5 3.6-1.2 5.5-1.6.2 0 .5-.1.4-.3 0-.2-.3-.2-.5-.2-1.1 0-2.1 0-3.1.3-2.1.5-4.1 1.2-6.1 1.8-.5.2-1 .4-1.5.4.6-.7 1.3-1.1 1.8-1.8zm-27.6-89c-.5.3-.7.7-.5 1.2.7 2.4 1.1 4.9 1.3 7.5.1 1.4-.1 2.9-.9 4.1-.6.9-1.2 1.9-1.8 2.8-.7 1.2-1.4 2.4-2 3.7-.1.2-.1.4.1.6.2.2.4.2.7.1.3-.2.6-.3.8-.6.6-1 1.2-2 1.7-3.1.4-.9.8-1.8 1.3-2.7.9-2.1 1.7-4.2 1.4-6.5-.3-2.1-.3-4.3-1.9-6-.4-.3-.5-.7-.2-1.1zm-10.1-29.5c.9-.1 1.6-.2 2.4-.3 1-.1 2-.2 3-.6.1 0 .3 0 .3-.2s-.1-.2-.3-.2c-.4-.1-.8-.1-1.3-.1-2 .1-4 .3-6 .5-1.2.2-2.5.2-3.6.9-.2.1-.4.1-.4-.2v-.4c.2-1.3.3-2.6.6-3.9v-.2c0-.2-.1-.3-.3-.4-.2 0-.2.2-.3.3-.3.7-.4 1.4-.6 2.2-.4 1.7-.7 3.5-.8 5.3 0 .2-.1.5.1.6.3.1.4-.2.5-.4.3-.5.7-.9.9-1.5.1-.4.5-.6.9-.7 1.8-.5 3.4-.6 4.9-.7zm36.2 40.6v-.2c0-.2.1-.5-.1-.5s-.3.2-.4.4v.1c-1.2 2.8-2.1 5.7-3.1 8.6-.1.2-.1.5-.1.7 0 .2.2.4.4.2.5-.5 1.1-.9 1.3-1.7.1-.5.4-1 .6-1.6.8-1.8 1.2-3.9 1.4-6zm-3.8 78.3c.2.1.3 0 .4 0 2.2-.9 4.5-1.6 6.7-2.4 1.4-.5 2.7-1 4-1.6.1-.1.4-.1.3-.3-.1-.2-.3-.2-.5-.2-.5 0-.9.2-1.3.4-1.2.6-2.4.9-3.7 1.1-2.3.3-4.1 1.5-5.9 2.9.1 0 0 .1 0 .1zm-35.2-114.6c.2.4.4.4.6.5.9.4 1.8.3 2.7.1 1.6-.2 3.2-.5 4.6-1.6.1-.1.4-.2.3-.4-.1-.2-.3-.1-.5-.1-.1 0-.2.1-.3.1-1.6.6-3.2 1-4.8 1.3-.9.2-1.7.4-2.6.1zm-44.2 46c.2.1.4 0 .6-.1.7-.2 1.1-.8 1.6-1.3 1-1 1.9-2 2.9-3 .2-.2.3-.5.1-.7-.2-.3-.4 0-.6.2-.8.6-1.4 1.3-2.1 2-.9.9-1.8 1.8-2.5 2.9zm97-2.4c-.5 2.9-1.3 5.6-1.9 8.4 1.5-2.6 2.4-5.3 1.9-8.4zM335.3 541v-.5c0-.2-.1-.5-.4-.5-.3-.1-.3.2-.4.4-.5 1.2-1 2.4-1.2 3.8 0 .2-.2.4 0 .5.2.1.3-.2.5-.3.3-.4.4-.8.8-1.2.6-.6.9-1.3.7-2.2zm25.2 33c-.1.3 0 .5.1.7.5 1.1.7 2.2.9 3.3 0 .2.1.4.1.6 0 .1.1.2.2.2s.1-.1.2-.2c.4-1.6-.1-3.4-1.5-4.6zm-33.9-33.8c.5.2.9.3 1.3.2 1.4-.1 2.7-.3 3.9-1 .2-.1.4-.1.3-.4-.1-.2-.3-.2-.5-.1-1.1.3-2.2.6-3.3.8-.6.2-1.1.3-1.7.5zm.3 41.9c-.1-.3-.1-.6-.2-.9-.3-.9-.4-1.9-1-2.7-.1-.2-.3-.4-.5-.3-.3.1-.1.4-.1.5.3.8.5 1.5.8 2.3.2.4.3.8.5 1.2.1.1.2.2.3.2.2-.1.2-.2.2-.3zm-.9-38.3c.1.2.3.3.5.4 1.2.5 2.3.3 3.4-.3.2-.1.5-.2.4-.5-.1-.3-.4-.1-.6 0-1 .3-1.9.5-3 .3-.2 0-.4-.1-.7.1zm3-8.2c-1.3-.4-2.6-.3-3.8.1 1.2 0 2.4.4 3.8-.1z"/><path fill="#393B41" d="M406.9 681.7c-.6-1.4-4.1-6-4.2-7.4 0-.2-.2-.3-.3-.4-1.3-2-7.6-13.5-8.2-15.2-.9-2.5-4.7-8.3-5.2-8.7-.2-.2-.5-.4-.3-.6.1-.3.1-.5.1-.8 0-1.1-.1-2.2.3-3.3.4-1.3 4.7-51.5 4.5-52.6-.5-2.6-.8-5.2-.8-7.9 0-1.5.2-3.1.2-4.6-.1-3.1-.7-6-2-8.8-.4-.8-2.7-4-5.3-5.1-1.4-.6-2.8-.9-4.3-.7-.4.1-.6-.1-.7-.5-.2-1.5-.6-2.9-.6-4.4-.1-1.5-1.5-6.1-5.6-8.7-1.7-1.1-3.7-1.7-5.7-1.7-1.4 0-2.6.4-3.4 1.7-.5.7-1 1.4-1.4 2.2-.1.1-.1.3-.3.3-.2 0-.1-.2-.2-.3-.1-.8-.3-1.5-.6-2.2-.5-1.3-1.2-2.3-2.4-3.1-2.1-1.3-4.4-2.1-6.7-2.9-1.2-.4-2.5-.3-3.7 0-1.5.3-2.7 1.3-4 2.2-.4.2-.7.6-.9 1-2.2 3.4-3.4 7.3-4.3 11.2-.5 2.1-1 4.1-.8 6.3 0 .1.1.4-.1.4s-.3-.2-.4-.3c-.8-1-1.1-2.2-1.4-3.4-.5-2.4-.6-4.9-.6-7.4 0-4.2-.6-16-.8-17.4-.3-2.2-.2-4.5-.4-6.8-.2-2.1-.3-21.7-.6-24.9-.1-1.2-.3-2.5-1-3.5-1.1-1.6-2.5-2.9-4.5-3.2-1.1-.1-2 .1-3 .5-1.3.5-2.5 1.3-3.3 2.5-.2.2-.3.5-.4.7-1.2 1.6-2.2 3.4-2.8 5.4-.7 2.2-1.3 4.5-1.8 6.8-1.4 6.3-1.8 12.7-1.9 19.1 0 2.1-.6 16.1-.3 21.3.3 5.7-.2 11.3-1.2 16.9-1 5.5-2.4 10.9-4.1 16.2-1 3.2-2 6.5-3.9 9.4-.6.9-1.4 1.1-2.1.3-1.7-1.8-3.1-3.8-4.2-5.9-1.5-2.6-2.3-5.5-3-8.4-.4-1.7-.7-3.4-1-5.1-.1-1-.4-2-.7-2.9 0-.1-.1-.3-.2-.4-.8-.8-1.3-1.9-2-2.8-1.1-1.6-2.4-3.1-3.9-4.4-1.2-1.1-2.4-2.3-3.8-3.2-1.8-1.2-3.7-2.3-5.9-2.8-.7-.2-1.4-.7-2.2-.6-2.4.2-4.3 1.4-5.4 3.6-.3.7-.6 1.4-.8 2.1-.2.7-.2 1.4 0 2.1.5 1.4 1 2.7 1.4 4.1.6 2 1.1 4.1 1.7 6.2.5 1.8.9 3.6 1.2 5.5.3 2 1.4 3.7 2.3 5.4 1.4 2.7 3 5.4 3.8 8.4.9 3.2 2.1 6.3 2.9 9.6.7 2.8 1.3 5.7 1.7 8.6.2 1.1.3 2.3.7 3.3.5 1.6 1.2 3.1 1.8 4.7.7 1.8 1.6 3.4 2.8 4.8 1.2 1.5 2.5 3 3.8 4.4.7.8 1.3 1.7 2 2.5 2.7 3 4.9 6.3 7.3 9.6 1.6 2.2 3.3 4.3 4.9 6.4 1.2 1.6 2.7 2.9 4.2 4.1 1 .8 2.1 1.6 3.2 2.3 2 1.1 3.8 2.4 5 4.4 1 1.7 2 3.4 2.8 5.2.3.8.7 1.6 1 2.4.8 1.6 1.6 3.1 2.3 4.7.4.8.8 1.7 1.3 2.4.1.2.3.4.6.2.4-.3.6-.8.3-1.3l-.6-1.5c-.4-1.3-1.1-2.6-1.7-3.8-.3-.7-.7-1.3-1-2-.8-2.2-2-4.2-3.1-6.2-.9-1.5-1.8-2.9-2.7-4.4-.8-1.2-1.4-2.4-2.3-3.5-.4-.4-.8-.9-1.2-1.2-.2-.2-.4-.2-.6-.1-.2.1-.2.4-.2.6l.3.9c.3.5.6 1 .9 1.6-.7 0-.7 0-.9-.2-1.7-1.3-3.5-2.6-5-4.2-1.2-1.3-2.4-2.6-3.4-4-1-1.3-1.9-2.8-3.1-3.9-.8-.8-1.4-1.7-2.1-2.6-1.5-2.1-2.8-4.3-4.5-6.3-1.1-1.3-1.9-2.8-3.1-4.1-1-1-1.8-2.1-2.6-3.2-1.1-1.4-2.2-2.8-2.9-4.4-.3-.7-.6-1.3-.9-2-.5-1.2-1.2-2.4-1.4-3.7-.3-2-.7-4-1.3-5.9-.6-2-1-4-1.3-6.1-.3-1.8-.7-3.6-1.5-5.3-.3-.7-.6-1.4-.7-2.2-.4-1.9-1-3.7-1.8-5.5-.3-.5-.3-1 .3-1.4.3-.2.5-.5.8-.8.1-.1.3-.3.2-.5 0-.2.1-.4-.1-.5-.2-.1-.3.1-.4.2-.3.3-.7.6-1 1-.3.3-.5.3-.7 0-.2-.4-.5-.7-.7-1.1-.2-.3-.2-.6.2-.8.4-.2.7-.4 1-.6 1-.6 1.9-1.3 2.8-2 .2-.2.3-.3.1-.6-.2-.3-.4-.1-.5 0l-.9.6c-1 .7-2 1.3-3 2-.4.3-.6.3-.9-.1-.3-.4-.5-.7-.8-1.1-.3-.5-.3-1 0-1.5 1.4-2 3.1-3.9 5.2-5.2.3-.2.5-.3.8-.5.2-.1.2-.3.1-.5s-.3-.1-.4-.1c-.4.2-.9.2-1.2.5-1.8 1.3-3.4 2.8-4.7 4.6-.1.1-.2.4-.4.4-.2-.1-.1-.3-.2-.5-.1-1.8-.4-3.6-1-5.3-.2-.7-.4-1.5-.6-2.3-.1-.4-.1-.7.5-.7.5 0 1.1-.2 1.5-.5 1.9-1.2 3.3-2.9 4.3-4.9.1-.2.1-.5.1-.7-.3-2.1-1.1-4.1-2.1-6-.3-.7-.9-1-1.5-1.1-.4-.1-.9-.1-1.3-.1-.6 0-1.2.1-1.9.2 1.1-.8 2.3-1.4 3.7-1.1.9.2 1.6.5 2.4 1 3.9 2.3 7.4 5.1 10.2 8.7.9 1.1 1.8 2.3 2.3 3.7 1.3 3.3 2.2 6.7 2.9 10.1.4 1.8.6 3.7 1.4 5.4 1.5 3.4 3.9 6.2 6.6 8.7-.6.7-1.2 1.2-1.9 1.7-.3.2-.5.4-.7.6-.1.1-.1.2-.1.3.1.1.2 0 .3 0 .2-.1.5-.2.7-.3 1.2-.7 2.3-1.6 3.4-2.5.2-.2.4-.5.6-.7 2.3-4.2 4.2-8.5 5.6-13.1 2-6.5 3.2-13.2 3.7-20 .3-3.9.5-7.9.5-11.8.1-5.1.3-19 .3-21 0-3.1.2-6.2.5-9.3.6-6 1.7-11.9 3.9-17.5.3-.8.8-1.4 1.1-2.1.3-1.1 1.2-1.9 1.7-2.9 0-.1.1-.1.2-.1.7-.4 1.4-.8 2.2-1 1.5-.4 2.9-.2 4.2.7.2.2.5.4.6.7-.1.1-.2.1-.2 0-1-.7-2.1-.5-3.2-.5-1 0-1.9.4-2.9.5-.5.1-.7.3-.8.7-.4 1.3-.8 2.6-1.1 4-.2.9-.4 1.8.2 2.7.5.9 1.3 1.3 2.3 1.6 1.6.6 3.2.9 5 .4.6-.2 1.1-.5 1.7-.8.5-.2.7-.6.7-1.1-.1-1.4-.1-2.7-.1-4.1 0-.2 0-.4.2-.6.1.2.1.3.2.5 0 .1 0 .3.1.4 2 4.8.8 23.9.9 27.6v.9c-.2-.4-.4-.8-.4-1.3-.1-.5-.4-1-.6-1.4-.2-.2-.4-.5-.7-.4-.3.1-.1.5-.1.7.4 1.3.7 2.7.8 4.1 0 .7.1 1.4.3 2.1.1.6.3.7.8.3.2-.2.3-.2.4.1 0 .2.1.4.1.5.2 1.3.8 5.3.6 20.5 0 2.5.8 4.9 2.2 7l.3.3c2.1 1.1 5.2.6 6.5-1.7.1-.2.1-.3-.1-.4-.4-.2-.7.1-1.2.1.6-1.4 1.1-2.9 1.4-4.4.1-.9.4-1.8.5-2.7.1-.7.2-1.4-.1-2.1 0-.1-.1-.3-.2-.3-.2 0-.2.2-.3.3-.1.2-.1.4-.2.5-.5 1.4-.7 2.9-1.1 4.4-.3 1.7-1 3.2-1.5 4.8-.1.5-.6.6-.9.5-.4-.1-.2-.4-.2-.7 0-.2 0-.4.1-.7.4-2.4 1-4.7 1.7-7.1.7-2.3 1.5-4.6 2.5-6.8.9-1.9 2.2-3.4 4.2-4.2 1.1-.4 2.2-.7 3.4-.4 1.5.3 2.9.9 4.3 1.5 1 .4 1.7 1 2.4 1.7s1.2 1.5 1.5 2.5c.5 1.5.8 3.1 1.2 4.7.2.7.3 1.4.3 2.1v2.9c0 1.6-.2 3.3-.3 4.9-.1-.1-.1-.2-.2-.2-.2-.1-.4-.3-.6-.1-.2.2-.1.4 0 .6.7 1.3 1.1 2.8 1.9 4.1.7 1.1 1.2 2.5 2.8 2.9.2 0 .3.2.5 0s.1-.4.1-.6c-.1-.2-.2-.4-.3-.5-.7-1.1-1.4-2.2-1.9-3.3-.1-.3-.2-.6-.4-.8-.7-.6-.6-1.4-.5-2.2.1-.9.3-1.7.2-2.6 0-.3-.1-.6-.1-.8v-.8c0-1.4 0-2.9-.1-4.3v-1.8c0-.1 0-.2.1-.3.4-.8.8-1.7 1.2-2.6 1.2-2.1 3-2.8 5.3-2.2.8.2 1.6.7 2.4.9.7.2 7.1 3.4 6.2 14.5-.3 3.2-.2 6.5-.2 9.7v.5c.2.5 2.3 3.8 3 4.9.5.8 1 1.7 1.6 2.4.1.1.3.3.5.2.2 0 .2-.2.3-.4.1-.4-3-5.9-3.9-6.9-.3-.3-.5-.7-.5-1.1 0-1.4 0-2.7.3-4 .4-1.5.4-3 .3-4.5 0-.7.2-1 .9-1.1h.8c1.1-.2 7.1 1.6 8.8 7.5 1 3.4.5 9.9.7 12.1.3 2.7.2 5.4.6 8.1.2 1.8-4.4 48.7-4.9 50.3-.2.7-.2 1.4-.2 2.1 0 .1 0 .3-.1.3-.2 0-.2-.1-.3-.2l-.6-1.2c-.2-.7-.7-1.2-1.1-1.6-.2-.2-.4-.3-.7-.1-.3.2-.3.4-.2.7.1.6.3 1.1.4 1.7.1.5.3.9.6 1.3 1.2 1.4 6.3 8.4 7.2 10.6 1.2 2.9 8.5 14.7 9.8 17.4 0 .1.1.2.2.3 1.1 1.6 2.3 3.2 3.3 4.9.2.4.4.8.6 1.1.2.3.4.5.7.4-.7-.6-.7-1-.8-1.3zM281.6 573.1c-.8 1.4-1.8 2.8-3.2 3.7-.3.2-.7.3-1.1.4-.3 0-.3-.1-.3-.4.2-.7.6-1.3 1.1-1.8.9-.9 2-1.7 3.2-2.3.1-.1.3-.2.5-.1.1.2-.1.4-.2.5zm-3.7-7.2c.8-.1 1.5.2 2 1 .5.9 1.4 1.7 1.6 2.8.3 1.3.3 1.3-.9 1.9-1.9.9-3.4 2.3-4.6 4.2-.1.1-.1.3-.3.3-.2 0-.2-.2-.2-.3-.4-1.4-.8-2.7-1.2-4-.2-.6-.3-1.3-.6-1.9-.3-.7 0-1.2.4-1.7.1-.2.3-.3.4-.5.8-1.4 2-1.8 3.4-1.8zm54.8-55.3c-1.7.8-3.4 1.5-5.4.8-.1 0-.2-.1-.2-.1 1.5-.3 2.9-1 4.4-1.4.4-.1.7 0 1.1 0 .2 0 .3.2.3.3 0 .2-.1.3-.2.4zm-.1-4.7c-.1.7 0 1.4.1 2.1 0 .4-.1.6-.5.6h-.9c-1.5 0-2.9.7-4.2 1.4-.4.3-.8.5-1.4.5-.3 0-.5-.1-.6-.5-.1-.6-.2-1.2-.2-1.9 0-1.2.5-2.4.8-3.5.1-.3.2-.5.5-.6 1.7-.5 3.3-.8 5 0 .3.1.5.3.7.4.5.4.8.8.7 1.5zM364.4 656.4c-.5.7-1.2 1.1-1.9 1.7.5-.1 1-.3 1.5-.4 2-.6 4.1-1.2 6.1-1.8 1-.3 2.1-.3 3.1-.3.2 0 .4.1.5.2.1.3-.3.3-.4.3-1.8.5-3.6 1.2-5.5 1.6-2.7.7-5.3 1.6-7.7 3.1-2.1 1.3-4.4 2.4-6.7 3.4-.3.1-.6.3-.8-.1-.2-.3 0-.6.3-.9.1-.1.2-.2.3-.2 1.7-.8 3.4-1.7 5-2.6l2.1-1.2c.3-.1.5-.3.7-.6 1-.9 2.2-1.6 3.4-2.2zM336.8 567.4c-.4.4-.2.8 0 1 1.6 1.7 1.6 3.9 1.9 6 .3 2.3-.4 4.4-1.4 6.5-.4.9-.8 1.8-1.3 2.7-.5 1.1-1.1 2.1-1.7 3.1-.2.3-.5.5-.8.6-.2.1-.5.1-.7-.1-.2-.2-.2-.4-.1-.6.6-1.3 1.2-2.5 2-3.7.6-1 1.2-1.9 1.8-2.8.8-1.3 1-2.7.9-4.1-.2-2.5-.6-5-1.3-7.5.1-.4.3-.8.7-1.1zM326.7 537.9c-1.5.1-3.1.2-4.8.6-.5.1-.8.3-.9.7-.2.6-.6 1-.9 1.5-.1.2-.2.5-.5.4-.3-.1-.1-.4-.1-.6.2-1.8.4-3.6.8-5.3.2-.7.3-1.5.6-2.2.1-.1.1-.3.3-.3.2 0 .3.2.3.4v.2c-.3 1.3-.4 2.6-.6 3.9v.4c0 .3.2.4.4.2 1.1-.7 2.4-.7 3.6-.9 2-.3 4-.5 6-.5.4 0 .9 0 1.3.1.1 0 .3.1.3.2 0 .2-.1.2-.3.2-1 .4-2 .5-3 .6-.8.2-1.6.3-2.5.4zM362.9 578.5c-.2 2.1-.7 4.1-1.5 6.1-.2.5-.5 1-.6 1.6-.2.8-.8 1.2-1.3 1.7-.2.2-.4.1-.4-.2 0-.2 0-.5.1-.7 1-2.9 2-5.8 3.1-8.6v-.1c.1-.2.2-.4.4-.4.3 0 .1.3.1.5.1 0 .1.1.1.1zM359.1 656.8c0-.1.1-.1.1-.2 1.7-1.4 3.6-2.6 5.9-2.9 1.3-.2 2.5-.5 3.7-1.1.4-.2.9-.4 1.3-.4.2 0 .4-.1.5.2.1.2-.2.2-.3.3-1.3.6-2.7 1.1-4 1.6-2.2.9-4.5 1.5-6.7 2.4-.2.1-.3.2-.5.1zM323.9 542.2c.9.2 1.7.1 2.5-.1 1.7-.3 3.3-.7 4.8-1.3.1 0 .2-.1.3-.1.2 0 .4-.2.5.1.1.2-.1.3-.3.4-1.3 1.1-2.9 1.4-4.6 1.6-.9.1-1.8.2-2.7-.1-.1 0-.3-.1-.5-.5zM279.7 588.2c.7-1.1 1.6-2 2.5-2.9.7-.7 1.3-1.5 2.1-2 .2-.1.3-.4.6-.2.2.3.2.5-.1.7-1 1-1.9 2-2.9 3-.5.5-.9 1.1-1.6 1.3-.2.1-.4.2-.6.1zM376.7 585.8c.4 3.1-.4 5.9-1.9 8.4.6-2.8 1.5-5.5 1.9-8.4zM335.3 541c.1.9-.2 1.6-.8 2.2-.3.3-.5.8-.8 1.2-.1.2-.2.4-.5.3-.2-.1 0-.3 0-.5.2-1.3.8-2.5 1.2-3.8.1-.2.1-.5.4-.4.2 0 .3.3.4.5.1.2.1.4.1.5zM360.5 574c1.4 1.2 2 3 1.5 4.7 0 .1-.1.2-.2.2s-.2-.1-.2-.2c-.1-.2-.1-.4-.1-.6-.1-1.2-.4-2.3-.9-3.3-.2-.3-.2-.5-.1-.8zM326.6 540.2c.6-.1 1.2-.3 1.7-.4 1.1-.3 2.2-.5 3.3-.8.2-.1.4-.1.5.1.1.3-.1.3-.3.4-1.2.7-2.6.8-3.9 1-.5 0-.9-.1-1.3-.3zM326.9 582.1c0 .1 0 .2-.1.3-.2.1-.3 0-.3-.2-.2-.4-.4-.8-.5-1.2-.3-.7-.6-1.5-.8-2.3-.1-.2-.2-.4.1-.5.2-.1.4.1.5.3.6.8.7 1.8 1 2.7 0 .3 0 .6.1.9zM326 543.8c.3-.2.5-.1.7 0 1 .1 2 0 3-.3.2-.1.5-.3.6 0 .1.3-.2.3-.4.5-1.1.6-2.2.8-3.4.3-.2-.2-.4-.3-.5-.5zM329 535.6c-1.3.5-2.6.1-3.8.1 1.2-.3 2.4-.4 3.8-.1z"/><path fill="none" d="M277.9 565.9c.8-.1 1.5.2 2 1 .5.9 1.4 1.7 1.6 2.8.3 1.3.3 1.3-.9 1.9-1.9.9-3.4 2.3-4.6 4.2-.1.1-.1.3-.3.3-.2 0-.2-.2-.2-.3-.4-1.4-.8-2.7-1.2-4-.2-.6-.3-1.3-.6-1.9-.3-.7 0-1.2.4-1.7.1-.2.3-.3.4-.5.8-1.4 2-1.8 3.4-1.8zM331.2 508.6c-1.5 0-2.9.7-4.2 1.4-.4.3-.8.5-1.4.5-.3 0-.5-.1-.6-.5-.1-.6-.2-1.2-.2-1.9 0-1.2.5-2.4.8-3.5.1-.3.2-.5.5-.6 1.7-.5 3.3-.8 5 0 .3.1.5.3.7.4.5.3.8.8.8 1.5-.1.7 0 1.4.1 2.1 0 .4-.1.6-.5.6h-1zM277.3 577.3c-.3 0-.3-.1-.3-.4.2-.7.6-1.3 1.1-1.8.9-.9 2-1.7 3.2-2.3.1-.1.3-.2.5-.1.1.1 0 .3-.1.4-.8 1.4-1.8 2.8-3.2 3.7-.5.3-.9.4-1.2.5zM327.1 511.2c1.5-.3 2.9-1 4.4-1.4.4-.1.7 0 1.1 0 .2 0 .3.2.3.3 0 .2 0 .3-.2.4-1.7.8-3.4 1.5-5.4.8 0 0-.1 0-.2-.1z"/></g></svg>