<svg xmlns="http://www.w3.org/2000/svg" viewBox="0 0 400 400" enable-background="new 0 0 400 400"><style type="text/css">.st0{display:none;fill:none;stroke:#BE1E2D;stroke-miterlimit:10;} .st1{fill:#010101;} .st2{fill:none;} .st3{fill:#040305;}</style><circle id="OUTLINE" class="st0" cx="200" cy="200" r="200"/><g id="db"><path class="st1" d="M200 153.4c-21.2 0-38.4 6.3-38.4 14v11.5c0 7.7 17.2 14 38.4 14s38.4-6.3 38.4-14v-11.5c0-7.7-17.2-14-38.4-14zM200 199.6c-20.2 0-36.9-5.7-38.4-13-.1.3 0 19 0 19 0 7.7 17.2 14 38.4 14s38.4-6.3 38.4-14v-19c-1.5 7.3-18.2 13-38.4 13zM238.3 213.6c-1.5 7.2-18.1 13-38.3 13s-36.9-5.7-38.4-13v19c0 7.7 17.2 14 38.4 14s38.4-6.3 38.4-14l-.1-19z"/></g><g id="footballer"><circle class="st1" cx="135.6" cy="42.6" r="5.9"/><path class="st1" d="M159.5 100.8c3.3 0 5.9 2.6 5.9 5.9 0 3.3-2.6 5.9-5.9 5.9-3.3 0-5.9-2.6-5.9-5.9 0-3.3 2.7-5.9 5.9-5.9zM117.9 81.8l-16.5-9.1c-2.2-1.2-5-.4-6.2 1.8-1.2 2.2-.4 5 1.8 6.2l20.2 11.1c2.1 1.1 4.7.5 6-1.5l3.5-5.3 6.2 8.2 9.7 23.5c.7 1.8 2.4 2.8 4.2 2.8.6 0 1.2-.1 1.7-.3 2.3-1 3.4-3.6 2.5-6l-9.9-24c-.1-.4-.3-.7-.6-1l-5.9-7.8 3.5-20.6 15.3 7.1c.5.2 1 .3 1.5.3 1.3 0 2.6-.8 3.2-2.1.8-1.8 0-3.9-1.7-4.7l-13.6-6.3-3.8-1.8c-.3-.2-.7-.2-1.1-.3l-15.3-5c-.3-.2-.6-.3-1-.4l-.4-.1-.3-.1-12.8-2.4-8.4-6.7c-1.5-1.2-3.8-1-5 .6-1.2 1.5-1 3.8.6 5l9.1 7.2c.4.4 1 .6 1.5.7l14.4 2.9c.2 0 .4 0 .6.1l-.6 24.5-2.4 3.5z"/></g><path class="st2" d="M160.753 153.026l-13.257-19.038 16.002-11.143 13.257 19.038z"/><path class="st1" d="M147.5 134l10.4-2.1 5.7-9 5.2 24.6z"/><g id="testtubes"><path class="st1" d="M188.9 42.2V86.1c.2 2.7 2.5 7.8 10.3 7.8 7.2 0 10-4.9 10.4-7.5 0-.2.1-.4.1-.6V42.2c1.4-.4 2.5-1.9 2.5-3.5v-4c0-2-1.7-3.7-3.7-3.7h-18.6c-2 0-3.5 1.7-3.5 3.7v4c0 1.6 1.1 3 2.5 3.5zm1.1-6.3c0-.7.5-1.1 1.2-1.1h16c.7 0 1.4.4 1.4 1.1v1.4c0 .7-.7 1.1-1.4 1.1h-.1c-.7 0-1.4.7-1.4 1.4v46s-.6 4.3-6.6 4.3c-6.4 0-6.6-4.3-6.6-4.3v-46c0-.7-.6-1.4-1.3-1.4h-.1c-.7 0-1.2-.5-1.2-1.1v-1.4zM199.1 88.4c4.2 0 4.6-3.5 4.6-3.5V73.4h-9.3v11.5c.1 0 .3 3.5 4.7 3.5zM217.6 42.2V86.1c.2 2.7 2.5 7.8 10.3 7.8 7.2 0 9.9-4.9 10.3-7.5 0-.2.1-.4.1-.6V42.2c1.4-.4 2.5-1.9 2.5-3.5v-4c0-2-1.6-3.7-3.7-3.7h-18.6c-2 0-3.6 1.7-3.6 3.7v4c.1 1.6 1.3 3 2.7 3.5zm1.1-6.3c0-.7.6-1.1 1.3-1.1h16c.7 0 1.3.4 1.3 1.1v1.4c0 .7-.6 1.1-1.3 1.1h-.1c-.7 0-1.2.7-1.2 1.4v46s-.8 4.3-6.7 4.3c-6.4 0-6.8-4.3-6.8-4.3v-46c0-.7-.5-1.4-1.2-1.4s-1.3-.5-1.3-1.1v-1.4zM228 88.4c4.2 0 4.8-3.5 4.8-3.5V73.4h-9.6v11.5s.3 3.5 4.8 3.5zM246.5 42.2V86.1c.2 2.7 2.5 7.8 10.3 7.8 7.2 0 9.8-4.9 10.2-7.5V42.2c1.7-.4 2.8-1.9 2.8-3.5v-4c0-2-1.7-3.7-3.8-3.7h-18.6c-2 0-3.5 1.7-3.5 3.7v4c.1 1.6 1.2 3 2.6 3.5zm1.2-6.3c0-.7.5-1.1 1.2-1.1h16c.7 0 1.1.4 1.1 1.1v1.4c0 .7-.4 1.1-1.1 1.1h-.1c-.7 0-1.4.7-1.4 1.4v46s-.6 4.3-6.6 4.3c-6.4 0-6.6-4.3-6.6-4.3v-46c0-.7-.6-1.4-1.3-1.4h-.1c-.7 0-1.2-.5-1.2-1.1l.1-1.4zM256.8 88.4c4.2 0 4.6-3.5 4.6-3.5V73.4h-9.3v11.5c.1 0 .2 3.5 4.7 3.5zM268.8 66.9v7h7v27.3h-96.2V73.9h7v-7h-13.7V115h109.5l.1-48.1z"/></g><path class="st2" d="M204.075 146.002l4.3-22.8 19.16 3.614-4.298 22.8z"/><path class="st1" d="M208.3 123.2l8.9 5.9 10.3-2.2-13.9 20.9z"/><g id="clip-board"><path class="st1" d="M107.9 146.5H87.5l1.4 6.4c.2.8.2 1.6.1 2.4h14.6v102.9H22.8v-103h14.6c-.1-.8-.1-1.6.1-2.4l1.4-6.4H18.5c-2.4 0-4.4 2-4.4 4.4v111.7c0 2.4 2 4.4 4.4 4.4H108c2.4 0 4.4-2 4.4-4.4V150.8c-.1-2.4-2-4.3-4.5-4.3zM93.3 178H63.5c-2.4 0-4.4 2-4.4 4.4 0 2.4 2 4.4 4.4 4.4h29.8c2.4 0 4.4-2 4.4-4.4 0-2.4-2-4.4-4.4-4.4zM93.3 204.8H63.5c-2.4 0-4.4 2-4.4 4.4 0 2.4 2 4.4 4.4 4.4h29.8c2.4 0 4.4-2 4.4-4.4 0-2.4-2-4.4-4.4-4.4zM30.3 179.1c-1.8 1.6-2.1 4.3-.5 6.2l6.4 7.5c.8 1 2.1 1.5 3.3 1.5h.3c1.4-.1 2.7-.9 3.4-2.1l11.5-18.5c1.3-2.1.6-4.7-1.4-6-2.1-1.3-4.7-.6-6 1.4L39 182.5l-2.5-2.9c-1.6-1.9-4.4-2.1-6.2-.5zM40.7 202.6c-3.6 0-6.6 2.9-6.6 6.5s2.9 6.5 6.6 6.5c3.6 0 6.5-2.9 6.5-6.5.1-3.5-2.8-6.5-6.5-6.5zM93.3 231H63.5c-2.4 0-4.4 2-4.4 4.4 0 2.4 2 4.4 4.4 4.4h29.8c2.4 0 4.4-2 4.4-4.4 0-2.4-2-4.4-4.4-4.4zM40.7 228.8c-3.6 0-6.6 2.9-6.6 6.5s2.9 6.5 6.6 6.5c3.6 0 6.5-2.9 6.5-6.5.1-3.5-2.8-6.5-6.5-6.5zM44.7 157.4h37c.9 0 1.8-.4 2.3-1.1.6-.7.8-1.6.6-2.5l-3.1-14.2c-.3-1.4-1.5-2.4-2.9-2.4H47.7c-1.4 0-2.6 1-2.9 2.4l-3.1 14.2c-.2.9 0 1.8.6 2.5s1.5 1.1 2.4 1.1z"/></g><path class="st2" d="M143.267 214.7l-23.177-1.057.888-19.48 23.177 1.056z"/><path class="st1" d="M120.1 213.6l4.6-9.5-3.7-10 22.7 10.8z"/><g id="scale"><path class="st1" d="M311.7 171.2c.6-1 .6-2.3 0-3.5l-17.4-34.8c-.6-1.3-1.7-2-2.9-2s-2.3.7-2.9 2l-17.4 34.8c-.6 1.2-.6 2.5 0 3.5s1.8 1.6 3.1 1.6h34.3c1.4 0 2.6-.6 3.2-1.6zm-20.3-33.9c.3 0 .6.5.6.5l12.3 24.7c.9 1.7-.2 1.2-.7 1.1-3.4-.8-7.6-1.3-12.2-1.3-4.5 0-8.7.5-12 1.2-.6.1-1.8.6-.8-1.1l12.3-24.6c-.1.1.2-.5.5-.5zM370.7 156.1l-17.4-34.8c-.6-1.3-1.7-2-2.9-2s-2.3.7-2.9 2l-17.4 34.8c-.6 1.2-.6 2.5 0 3.5s1.8 1.6 3.1 1.6h34.3c1.3 0 2.5-.6 3.1-1.6.7-1 .7-2.3.1-3.5zm-20.3-30c.5 0 .8.7.8.7l11.9 23.8c1 1.8-.4 1.4-1 1.3-3.3-.7-7.3-1.2-11.7-1.2-4.5 0-8.6.5-12 1.2-.6.1-1.8.3-.6-1.7l11.7-23.4c0 .1.4-.7.9-.7zM275 125.6h.5l91.7-15c1.7-.3 2.8-1.9 2.6-3.6-.3-1.7-1.9-2.8-3.6-2.6l-37.2 6.1c-1 .2-1.1-.7-1.2-1.1-1-2.9-3.7-5-6.9-5-4 0-7.2 3.2-7.2 7.2 0 .5.2 1.3-.6 1.4l-38.5 6.3c-1.7.3-2.8 1.9-2.6 3.6.2 1.7 1.5 2.7 3 2.7zM324 183.1v-56.9c0-1.7-1.4-3.1-3.1-3.1-1.7 0-3.1 1.4-3.1 3.1v56.9c0 1.2-1 1.3-1.6 1.3-17.5 1.2-31.8 8.7-36.4 14.9-.8 1.1-1.9 3.1 2.4 3.1h77.4c4.2 0 3.2-1.8 2.6-2.8-4.3-6.2-18.7-14-36.5-15.2-.6 0-1.7 0-1.7-1.3z"/></g><path class="st2" d="M246.996 178.192l21.998-7.37 6.195 18.49-22 7.37z"/><path class="st1" d="M269 170.8l-.9 10.6 7.1 8-25.1-1.9z"/><path id="waist-measure" class="st1" d="M180.4 282.7h-22.3c3.4-7.6 7.6-12.4 7.7-12.5.7-.8.7-2.1-.1-2.8-.8-.7-2.1-.7-2.8.1-.2.2-5.4 5.9-9.1 15.2h-38.1c-1.1 0-2 .9-2 2v25.5c0 1.1.9 2 2 2h35.7c1.3 5.3 3.6 10.5 6.8 15.5.7 1.1 1.5 2.4 2.4 3.8-9.7 3.9-20.6 6-31.6 6-11.5 0-22.7-2.3-32.7-6.4.8-1.2 1.5-2.4 2.1-3.4 20.5-31.9-4.4-59.9-4.7-60.1-.7-.8-2-.9-2.8-.1-.8.7-.9 2-.1 2.8 1 1 23.1 26 4.3 55.3-3.9 6-11 17.1-9.8 29.8.1 1 1 1.8 2 1.8h.2c1.1-.1 1.9-1.1 1.8-2.2-.7-7.6 2.1-14.8 5.1-20.4 10.5 4.5 22.5 6.9 34.7 6.9 11.8 0 23.4-2.3 33.6-6.5 2.9 5.5 5.6 12.5 4.9 20-.1 1.1.7 2.1 1.8 2.2h.2c1 0 1.9-.8 2-1.8 1.2-12.7-6-23.9-9.8-29.8-2.8-4.3-4.8-8.8-6-13.3h24.9c1.1 0 2-.9 2-2v-25.5c-.3-1.2-1.2-2.1-2.3-2.1zm-2 25.5h-4.2v-8.1c0-1.1-.9-2-2-2s-2 .9-2 2v8.1h-5.6v-8.1c0-1.1-.9-2-2-2s-2 .9-2 2v8.1H155v-8.1c0-1.1-.9-2-2-2s-2 .9-2 2v8.1h-5.6v-8.1c0-1.1-.9-2-2-2s-2 .9-2 2v8.1h-5.5v-8.1c0-1.1-.9-2-2-2s-2 .9-2 2v8.1h-5.6v-8.1c0-1.1-.9-2-2-2s-2 .9-2 2v8.1h-4.9v-21.5h60.7l.3 21.5zm-50.1 20.6c-2.3 0-4.2-1.9-4.2-4.2 0-2.3 1.9-4.2 4.2-4.2 2.3 0 4.2 1.9 4.2 4.2 0 2.3-1.9 4.2-4.2 4.2zm-44.5-26v-4.3h-6.7V288h6.7v-4.3l9.5 9.5-9.5 9.6z"/><path class="st2" d="M165.204 252.767l-10.092 20.89-17.558-8.483 10.092-20.89z"/><path class="st1" d="M155.1 273.6l-7-8-10.6-.5 18.9-16.6z"/><path id="thermometer" class="st1" d="M369.3 209.6h-59.1c-4.4 0-7.9 3.5-7.9 7.9v65.8c0 4.4 3.5 7.9 7.9 7.9h59.1c4.4 0 7.9-3.5 7.9-7.9v-65.8c0-4.4-3.5-7.9-7.9-7.9zm-22.8 10.9h10.4c.9 0 1.6.7 1.6 1.6s-.7 1.6-1.6 1.6h-10.4c-.9 0-1.6-.7-1.6-1.6s.7-1.6 1.6-1.6zm-16.4 60c-5 0-9-4-9-9 0-2.9 1.4-5.5 3.5-7.2.5-.4 1.8-1.3 1.8-2.4v-36.8c0-2.1 1.7-3.7 3.7-3.7 2.1 0 3.7 1.7 3.7 3.7v36.8c0 1.2 1.2 2 1.7 2.4 2.2 1.6 3.6 4.3 3.6 7.2 0 4.9-4.1 9-9 9zm26.8-17.2h-10.4c-.9 0-1.6-.7-1.6-1.6s.7-1.6 1.6-1.6h10.4c.9 0 1.6.7 1.6 1.6s-.8 1.6-1.6 1.6zm9-9.9h-19.4c-.9 0-1.6-.7-1.6-1.6 0-.9.7-1.6 1.6-1.6h19.4c.9 0 1.6.7 1.6 1.6 0 .9-.7 1.6-1.6 1.6zm-21-11.5c0-.9.7-1.6 1.6-1.6h10.4c.9 0 1.6.7 1.6 1.6 0 .9-.7 1.6-1.6 1.6h-10.4c-.9 0-1.6-.7-1.6-1.6zm21-8.3h-19.4c-.9 0-1.6-.7-1.6-1.6 0-.9.7-1.6 1.6-1.6h19.4c.9 0 1.6.7 1.6 1.6 0 .8-.7 1.6-1.6 1.6z"/><path class="st2" d="M270.58 213.295l21.45 8.835-7.425 18.03-21.45-8.835z"/><path class="st1" d="M292 222.1l-7.5 7.5.1 10.6-17.7-17.9z"/><g id="graph"><path class="st3" d="M201.3 289.2s4.8 2.7 8.6 4h-4.4c-.5 0-.9.4-.9.9h-1c0-.5-.4-.9-.9-.9h-4.4c-.5 0-.9.4-.9.9l.4 2.2c0 .5.4.9.9.9h3.6c.5 0 .9-.4.9-.9l.1-.5h1.6l.1.5c0 .5.4.9.9.9h3.6c.5 0 .9-.4.9-.9l.4-2.1v-.1c0-.3-.2-.6-.4-.7 1.3.4 2.5.6 3.3.4 0-2.4-1-4.7-2.6-6.5-1.2-1.3-2.7-2.3-4.4-2.8-.9-.3-1.7-.4-2.7-.4-5.3 0-9.6 4.3-9.6 9.6.1.1 5.7.1 6.9-4.5zm8.8 4.9l-.4 2.1v.1c0 .1-.1.1-.1.1H206c-.1 0-.1-.1-.1-.1l-.2-1.3h-2.9l-.2 1.2v.1c0 .1-.1.1-.1.1h-3.6c-.1 0-.1-.1-.1-.1l-.4-2.1c0-.1.1-.1.1-.1h4.4c.1 0 .1 0 .1.1l-.1.8h2.9l-.1-.8c0-.1.1-.1.1-.1h4.4c-.2-.1-.1 0-.1 0zM211.3 286.7c1-.5 1.7-1.6 1.7-2.8 0-1.7-1.3-3.1-3-3.1s-3 1.4-3 3.1c1.6.6 3.1 1.6 4.3 2.8zM271.1 286.7v-.8c0-1.2-1-2.1-2.1-2.1h-.2c-1.2 0-2.1 1-2.1 2.1v.8h-28.1v5.5h1.7v5.4l-5.5 7.5c-1.3-.4-2.9-.2-3.8.9-2.6 3.2-5.6 5.8-9 8.1-1.4-1.8-2.7-3.6-3.8-5.6-.1-.2-.3-.4-.4-.6-1-2-2.2-2.3-2.2-2.3s-2-2-5.8-2.2l-1.5 1.2 3.5 3-5.9-.4-2.4 3.4-2.4-3.4-4.6.3c-.1-.3-.2-.5-.3-.7l2.6-2.2-1.3-1.1c-4.3.4-7.8 1.5-8.4 3.6-4.1 6.3-6.2 13.2-7 20.6-.5 4.9 7.2 4.9 7.6 0 .4-4 1.4-7.8 3-11.4l1.3 3.1v13.4l-5 15.8h4.7v19.8c0 2.1 1.7 3.8 3.8 3.8 2.1 0 3.8-1.7 3.8-3.8v-19.8h4v20.2c0 2.1 1.7 3.8 3.8 3.8 2.1 0 3.8-1.7 3.8-3.8v-20.2h5.8l-6.5-15.8v-12.1l.1-5.6c1.8.7 3.2 3.1 3.2 3.1.8 1 1.6 1.9 2.4 2.9l.3.3c1 1.5 2.9 2.3 4.9 1.1 5-3 9.6-6.6 13.2-11.1 1.3-1.6 1.6-3.8 0-5.4 0 0-.1 0-.1-.1l4-5.4v30.4c0 1.6 1.3 3 3 3h24v20.9l-12.5 9.7c-.7.6-.9 1.6-.3 2.4.3.4.8.7 1.3.7.4 0 .7-.1 1-.4l10.5-8.1v12.6c0 .9.8 1.7 1.7 1.7.9 0 1.7-.8 1.7-1.7v-12.6l10.5 8.1c.3.2.7.4 1 .4.5 0 1-.2 1.3-.7.6-.7.4-1.8-.3-2.4l-12.5-9.7v-20.9h24c1.6 0 3-1.3 3-3v-38.6h1.7v-5.5h-28.2zm-67 41.6c-1.3 0-2.3-1-2.3-2.3 0-1.3 1-2.3 2.3-2.3 1.3 0 2.3 1 2.3 2.3.1 1.2-1 2.3-2.3 2.3zm0-9.6c-1.3 0-2.3-1-2.3-2.3 0-1.3 1-2.3 2.3-2.3 1.3 0 2.3 1 2.3 2.3.1 1.3-1 2.3-2.3 2.3zm90.9 12.1c0 .2-.2.4-.4.4h-25c-.2-.1-1.2-.1-1.5 0h-25c-.2 0-.4-.2-.4-.4V297l2.3-3.2-1.4-1-1 1.3v-1.9H295v38.6zM248.7 305.8c.2 0 .4 0 .6-.1l9.3 9.3c0 .2-.1.4-.1.6 0 1.7 1.3 3 3 3s3-1.3 3-3v-.5l7.1-3.6c.5.8 1.5 1.4 2.5 1.4.3 0 .5 0 .8-.1l2.8 2.8c-.3.5-.4 1-.4 1.6 0 1.7 1.3 3 3 3s3-1.3 3-3c0-.7-.3-1.4-.7-1.9l5.8-8.7c.2.1.5.1.7.1 1.7 0 3-1.3 3-3s-1.3-3-3-3-3 1.3-3 3c0 .9.4 1.6.9 2.2l-5.7 8.5c-.3-.1-.7-.2-1-.2-.5 0-1 .1-1.4.4l-2.5-2.5c.5-.5.8-1.3.8-2.1 0-1.7-1.3-3-3-3s-3 1.3-3 3v.1l-7.3 3.7c-.6-.7-1.4-1.1-2.3-1.1-.9 0-1.6.4-2.2.9l-8.6-8.6c.6-.5.9-1.3.9-2.2 0-1.7-1.3-3-3-3s-3 1.3-3 3 1.4 3 3 3z"/></g><path class="st2" d="M246.83 250.027l7.953 21.794-18.318 6.686-7.953-21.794z"/><path class="st1" d="M254.8 271.8l-10.6-.5-7.8 7.2 1.2-25.1z"/></svg>