<svg xmlns="http://www.w3.org/2000/svg" xmlns:xlink="http://www.w3.org/1999/xlink" viewBox="0 0 400 400" enable-background="new 0 0 400 400"><style type="text/css">.st0{enable-background:new ;} .st1{clip-path:url(#SVGID_2_);} .st2{fill:#010101;} .st3{fill:#040305;} .st4{display:none;fill:none;stroke:#BE1E2D;stroke-miterlimit:10;}</style><g class="st0" id="clip-board"><defs><path id="SVGID_1_" class="st0" d="M246.7 368.7L282.3 231 388 183.2 352.4 321z"/></defs><clipPath id="SVGID_2_"><use xlink:href="#SVGID_1_" overflow="visible"/></clipPath><g class="st1"><path class="st2" d="M380.7 195.2l-21.9 9.9-.3 6.1c0 .8-.3 1.6-.6 2.5l15.7-7.1L345.4 316l-86.9 39.3 28.2-109.4 15.7-7.1c.1-.8.3-1.6.7-2.6l3.2-7.4-22 9.9c-2.6 1.2-5.2 4.2-5.9 6.8l-30.6 118.7c-.7 2.6.9 3.7 3.5 2.5l96.3-43.5c2.6-1.2 5.2-4.2 5.9-6.8l30.6-118.7c.8-2.6-.8-3.7-3.4-2.5M356.3 235.8l-32.1 14.5c-2.6 1.2-5.2 4.2-5.9 6.8-.7 2.6.9 3.7 3.5 2.5l32.1-14.5c2.6-1.2 5.2-4.2 5.9-6.8.7-2.5-.9-3.6-3.5-2.5M349 264.3l-32.1 14.5c-2.6 1.2-5.2 4.2-5.9 6.8-.7 2.6.9 3.7 3.5 2.5l32.1-14.5c2.6-1.2 5.2-4.2 5.9-6.8.6-2.6-.9-3.7-3.5-2.5M313.7 244.7c-1.6.7-3.3 2.2-4.6 4L296.6 267l-1.9-1.9c-.6-.7-1.8-.6-3.2 0-1.1.5-2.2 1.3-3.3 2.5-2.4 2.5-3.4 5.6-2.2 6.8l4.8 4.9c.6.6 1.8.6 3.2 0 .1-.1.2-.1.3-.2 1.5-.8 3.1-2.2 4.2-3.8l17.4-25.3c1.9-2.8 2-5.3.1-5.7-.6-.1-1.4.1-2.3.4M293 287.5c-3.9 1.8-7.9 6.3-8.8 10.1-1 3.8 1.4 5.5 5.3 3.8 3.9-1.8 7.8-6.3 8.8-10.1 1-3.8-1.4-5.5-5.3-3.8M341.8 292.1l-32.1 14.5c-2.6 1.2-5.2 4.2-5.9 6.8-.7 2.6.9 3.7 3.5 2.5l32.1-14.5c2.6-1.2 5.2-4.2 5.9-6.8.7-2.5-.9-3.7-3.5-2.5M285.8 315.4c-3.9 1.8-7.9 6.3-8.8 10.1-1 3.8 1.4 5.5 5.3 3.8 3.9-1.8 7.8-6.3 8.8-10.1 1-3.9-1.4-5.6-5.3-3.8M351.7 199.6l-33.3 15c-1.5.7-3.1 2.3-3.8 3.9l-7.2 16.6c-.4 1-.5 1.9 0 2.4.4.5 1.2.5 2.2 0l39.9-18c1-.4 2-1.3 2.8-2.3.8-1 1.3-2.1 1.3-3l.6-13.6c.1-1.3-.9-1.7-2.5-1"/></g></g><g id="study-girl"><path class="st2" d="M232 303.4h-14c.1-2.3-.2-4.9-1-7.6-2.9-13.7-13-30-13-30 .6-4.6 1.5-11.7 1.8-18.9.5-12.4 2.4-51.7-33.3-51.7-35.7 0-34.7 32.9-34.7 32.9l2.6 42.6s-6 10.1-9.5 20.6c-1.6 4.2-1.5 8.3-.2 12.2h-25.3l-14.1 59.7h154.8L232 303.4zm-84-15.3c1.7-1.8 3.1-3 3.1-3 .3 1.1.7 2.2 1 3.3l-4.1-.3zm44.4.4c.3-2.1.7-4.2 1.1-6.4 0 0 3.5 2.2 6.9 5.7l-8 .7zm-52.3 5.8h64.7l-6.1 32.6h-52.6l-6-32.6zm5-70.4c7.9-.6 34.4-3 35.1-11.6 2.5 4.7 15.9 16.4 21.4 17.3-1.2 11.8-9.6 21.5-20.8 24.5v10h.1l3.6 1.7-11.5 20.4-11.1-21 2.8-.7v-10.7c-11.6-3.6-20-14.3-20-27.1.1-.9.3-1.8.4-2.8zm-35.4 85h23.4c2.1 3.6 4.9 6.9 7.7 9.6l.1-.1 2.2 12.1h58.6l1.6-8.8 1 .7c4.8-2.7 10.3-7 12.5-13.5h10.6l11.5 48.7H98.2l11.5-48.7z"/><circle class="st2" cx="171.3" cy="310.6" r="3.8"/></g><g id="test-computer"><path class="st2" d="M249.6 159.6l21-88.7-62.1-6.1 3.1-4.7-12-14.8 4.9-3.9 8.5 10.5-2.4 2 7.2 8.9 7.5-6.1-7.2-8.9-1.6 1.3-8.5-10.6 3-2.4-3.7-4.6-65.7 53.1 3.7 4.6 10-8.1 12 14.8 2.3-1-7.2 37.8-57.4 8.5 76.5 27.5 68.1-9.1zm-74.7-66.8l20.6-8.6 9-13.5 56.6 6.6-17.7 74.8-75.8-21.4 7.3-37.9zM162.4 158l-18.8-7.2 9.1-1.2 21.1 7-11.4 1.4zM254.1 162.7l-72.9 10.7v-.1L103.6 145v4.4l77.1 29.4 77.3-12.3 21.7-89.9-4.7-3.2zM133.6 122.5c1.7-.4 3.2-1.1 4.5-2l2.4 1.8 1.4-1.9 12 8.9 3.5-4.7-12.1-8.9 1.2-1.6-2.5-1.8c.6-2.3.7-4.7.1-7.2-1.9-7.8-9.7-12.6-17.4-10.7-7.8 1.9-12.5 9.7-10.7 17.4 2 7.8 9.9 12.6 17.6 10.7zm-5.3-22.2c4.5-1.1 9.1 1.7 10.2 6.2 1.1 4.5-1.7 9.1-6.2 10.1-4.5 1.1-9.1-1.7-10.1-6.2-1.2-4.5 1.6-9 6.1-10.1zM228.1 33.8c2.2 2.6 5.4 4.3 9.1 4.3h.1c3.7 0 7-1.7 9.2-4.3.2-.2.4-.5.6-.7 1.4-2 2.2-4.3 2.2-6.9s-.8-4.9-2.2-6.9c-.2-.3-.4-.5-.6-.7-2.2-2.6-5.5-4.3-9.2-4.3h-.1c-3.6 0-6.9 1.7-9.1 4.3-.2.2-.4.5-.6.7-1.4 1.9-2.2 4.3-2.2 6.9s.8 4.9 2.2 6.9c.2.2.4.4.6.7zm12.5 2.8c1.1-1.1 2-2.6 2.7-4.5.9.3 1.6.7 2.3 1.1-1.3 1.5-3 2.7-5 3.4zm5.6-4.2c-.8-.5-1.6-.9-2.6-1.3.3-1.3.6-2.7.6-4.1h3.9c-.1 2-.8 3.9-1.9 5.4zm2-6.4h-4c0-1.7-.2-3.4-.6-4.9 1-.4 1.8-.8 2.6-1.3 1.2 1.8 2 3.9 2 6.2zm-2.6-6.9c-.7.4-1.4.8-2.3 1.1-.6-1.9-1.6-3.4-2.7-4.5 2 .7 3.7 1.9 5 3.4zm-7.9-3.9c2 .3 3.7 2.4 4.7 5.3-1.4.4-3 .7-4.7.7v-6zm0 7c1.8 0 3.5-.3 4.9-.8.4 1.4.6 2.9.6 4.6h-5.5v-3.8zm0 4.8h5.5c-.1 1.3-.3 2.6-.6 3.8-1.5-.4-3.2-.7-4.9-.8v-3zm0 4c1.7 0 3.3.3 4.7.7-1 2.9-2.7 5-4.7 5.3v-6zm-8.8 2.2c.7-.4 1.4-.8 2.2-1.1.6 1.9 1.5 3.4 2.6 4.5-1.9-.7-3.5-1.9-4.8-3.4zm7.9 3.9c-2-.3-3.7-2.3-4.7-5.3 1.4-.4 3-.7 4.7-.7v6zm0-7.1c-1.8 0-3.5.3-5 .8-.3-1.2-.5-2.5-.6-3.8h5.6v3zm0-4h-5.6c0-1.6.2-3.2.6-4.6 1.5.5 3.2.7 5 .8V26zm0-10.8v6c-1.7 0-3.3-.3-4.7-.7.9-2.9 2.7-5 4.7-5.3zm-3 .6c-1.1 1.1-2 2.6-2.6 4.5-.8-.3-1.6-.7-2.2-1.1 1.2-1.6 2.8-2.8 4.8-3.4zm-5.5 4c.7.5 1.6.9 2.5 1.3-.4 1.5-.6 3.2-.7 4.9h-3.9c.1-2.3.9-4.4 2.1-6.2zm1.9 7.2c.1 1.5.3 2.9.6 4.1-.9.4-1.8.8-2.5 1.3-1.1-1.6-1.8-3.4-2-5.4h3.9zM248.2 50.8l-1.8 3.1-4.6 1.8 2.3 5.8 4.6-1.8 3.4 1 15.4-6.2 1.4 3.4 4.7-1.9-1.4-3.5 7.5-3-3.9-9.7-7.5 3-1.5-3.8-4.7 1.9 1.5 3.8-15.4 6.1zm18.8 2.4l-15 6-3.4-1-3.7 1.5-1.3-3.1 3.7-1.5 1.8-3.1 15-6 2.9 7.2zM173.1 24.6c3.1-.5 5.2-3.5 4.7-6.5-.5-3.1-3.5-5.2-6.5-4.7-3.1.5-5.2 3.5-4.7 6.5.5 3.1 3.4 5.2 6.5 4.7zm-1.4-8.3c1.5-.2 2.9.8 3.1 2.2.3 1.5-.8 2.9-2.2 3.1-1.5.3-2.9-.8-3.1-2.2-.3-1.4.7-2.8 2.2-3.1zM173.4 26.2c-3.1.5-5.2 3.5-4.7 6.5.5 3.1 3.5 5.2 6.5 4.7 3.1-.5 5.2-3.5 4.7-6.5-.5-3.1-3.4-5.2-6.5-4.7zm3.6 5.2c.3 1.5-.7 2.9-2.2 3.1-1.5.2-2.9-.8-3.1-2.2-.3-1.5.8-2.9 2.2-3.1 1.4-.3 2.8.7 3.1 2.2zM163.1 27.1l-8.3 12 6.6-1.1 8.3-11.9-11.7-8.7-6.7.5 11.8 9.2c.1 0 0 0 0 0zm2.5-2.1c.8-.1 1.5.4 1.7 1.2.1.8-.4 1.5-1.2 1.7-.8.1-1.5-.4-1.7-1.2-.1-.8.4-1.6 1.2-1.7zM244.3 89l-26.2-3.7 1.6 7.5 3.7.3 1.7 7.7-3.3 1.8 1.7 7.8 22.4-14.1-1.6-7.3zM230 98.2l-1-4.6 8 .7v.1l-7 3.8zM206.3 122.2c-.3-.4-.7-.7-1.1-1-.4-.3-.8-.5-1.3-.6.7-.4 1.3-.9 1.8-1.5.4-.6.7-1.4.7-2.4 0-.5-.1-1-.2-1.6-.2-.6-.5-1.1-1-1.6s-1.1-.9-2-1.2c-.8-.3-1.9-.5-3.2-.5h-10.9v19.9h11.3c.9 0 1.7-.1 2.6-.4.8-.3 1.6-.6 2.2-1.2.7-.5 1.2-1.1 1.6-1.9.4-.8.6-1.6.6-2.6 0-.7-.1-1.4-.3-1.9-.3-.7-.5-1.1-.8-1.5zm-11.1-5.8h3.2c.6 0 1.1.1 1.5.3.4.2.6.6.6 1.1 0 .6-.2 1.1-.6 1.3-.4.2-.9.3-1.5.3h-3.2v-3zm5.8 9.5c-.1.2-.3.4-.5.6-.2.1-.5.2-.8.3-.3.1-.6.1-.9.1h-3.6v-3.7h3.9c1.4 0 2.1.6 2.1 1.8 0 .3-.1.6-.2.9zM122 62.4c1.2 1.4 2.6 2.5 4 3.3 1.5.8 3 1.3 4.6 1.5 1.6.2 3.2 0 4.8-.6 1.6-.5 3.2-1.5 4.7-2.8 1.4-1.2 2.4-2.5 3-3.9.7-1.4 1-2.8 1.1-4.2.1-1.4-.1-2.7-.6-3.9-.4-1.2-1.1-2.3-1.9-3.3l-5.6 5c.3.5.5 1 .7 1.5.2.5.3 1 .3 1.5s-.1 1-.3 1.4c-.2.5-.5.9-1 1.3-.7.6-1.4 1-2.1 1.1-.7.1-1.4 0-2.1-.2-.7-.3-1.4-.6-2-1.1-.7-.5-1.3-1.1-1.8-1.7-.6-.6-1-1.3-1.5-2-.4-.7-.7-1.4-.9-2.2-.2-.7-.1-1.4 0-2.1.2-.7.6-1.3 1.3-1.9.6-.5 1.2-.8 1.8-.9.6-.1 1.1-.1 1.6 0s.9.3 1.3.5.6.4.8.6l5.6-4.9c-2.3-2.1-4.7-3.2-7.3-3.3-2.5 0-5.1 1.1-7.7 3.3-1.5 1.3-2.5 2.7-3.3 4.2-.7 1.5-1.1 3-1.2 4.6-.1 1.6.2 3.2.8 4.8.6 1.4 1.6 3 2.9 4.4z"/></g><path id="computer-mouse" class="st3" d="M109.3 243.6c-1.4-1.3-3.7-1.2-5 .2-1.3 1.5-1.2 3.7.2 5.1l5 4.6c1.4 1.3 3.7 1.2 5-.2 1.3-1.5 1.2-3.7-.3-5.1l-4.9-4.6zm3.7 8.2c-.5.6-1.4.6-2 .1l-5-4.6c-.6-.5-.6-1.4-.1-2 .5-.6 1.4-.6 2-.1l5 4.6c.6.6.6 1.5.1 2zm20.1-2.5l-7-6.5-1-1-4.8-4.4c-5.7-5.2-12-3.2-17.9 1.9l-.1.1-.3.4c-.7-.1-2.2-.5-3-1.7-.9-1.2-1-3-.5-5.3.2-1 .4-1.8.5-2.6h10.6c3.7 0 6.7-3.1 6.7-6.9V160c0-3.8-3-6.9-6.7-6.9H21.8c-3.7 0-6.8 3.1-6.8 6.9v63.4c0 3.8 3 6.9 6.8 6.9h33.7s1.5 13.8-10.2 13.8v6.9h40.8v-6.9c-12.1 0-10.2-13.8-10.2-13.8h21c-.1.6-.2 1.2-.4 2.1-.7 3-.5 5.3.8 7.1.9 1.2 2.1 1.9 3.2 2.2l-.8.9-.1.1c-4.1 6.4-6.2 12.1-.7 17.2l5.5 5.1 1.1 1 7 6.4c6.3 5.8 16 5.3 21.6-1.1 5.8-6.3 5.3-16.2-1-22zM66.2 226c-2.3 0-4.1-1.9-4.1-4.2 0-2.3 1.8-4.2 4.1-4.2s4.1 1.9 4.1 4.2-1.9 4.2-4.1 4.2zm-42.1-12.8v-51h83.4v51H24.1zm76.3 45.1c-4.8-4.4-2.6-8.9 1-14.4l2.5-2.9c5-4.3 10.1-6.4 15-1.9l4.8 4.4c-1.2 4-3.3 7.7-6.3 11.1-4 4.5-8.7 7.3-11.5 8.8l-5.5-5.1zm32.2 11.6c-4.9 5.5-13.2 5.9-18.6.9l-5.8-5.4c4.6-2.6 8.5-5.7 11.6-9.1 3.6-4.1 5.5-7.9 6.4-10.5l5.6 5.1c5.3 5 5.7 13.5.8 19zm-48.3-86.4l6.2 6.2c.1.1.1.3 0 .4l-2 2c-.1.1-.3.1-.4 0l-6.3-6.2-.9 5.3c-.1.1-.2.1-.3.1-.1 0-.2-.1-.2-.2l-4-12.6c0-.1 0-.1.1-.2s.1-.1.2-.1l11.8 3.3c.1 0 .1 0 .2.1 0 0 0 .1.1.1 0 .1 0 .2-.1.3l-4.4 1.5zm-46.5-18.3c-4 0-7.3 3.3-7.3 7.3s3.3 7.3 7.3 7.3 7.3-3.3 7.3-7.3-3.3-7.3-7.3-7.3zm0 11.6c-2.3 0-4.2-1.9-4.2-4.2s1.9-4.2 4.2-4.2 4.2 1.9 4.2 4.2-1.9 4.2-4.2 4.2zm0 15.4c-4 0-7.3 3.3-7.3 7.3s3.3 7.3 7.3 7.3 7.3-3.3 7.3-7.3-3.3-7.3-7.3-7.3zm0 11.6c-2.3 0-4.2-1.9-4.2-4.2 0-2.3 1.9-4.3 4.2-4.3s4.2 1.9 4.2 4.3-1.9 4.2-4.2 4.2zm20.4-27.7l.3 1.1h2.3c-.1-.6-.2-1.5-.2-2.4v-3.7c0-2.2-.9-4.3-4.2-4.3-1.6 0-2.9.4-3.7.9l.5 1.7c.7-.4 1.7-.7 2.7-.7 1.8 0 2.1 1.1 2.1 1.8v.2c-3.8 0-6 1.3-6 3.8 0 1.5 1.1 3 3.2 3 1.4 0 2.4-.6 3-1.4zm-3.6-1.9c0-1.5 1.7-1.9 3.5-1.9v1.4c0 .2 0 .4-.1.6-.2.7-1 1.4-2 1.4-.8 0-1.4-.5-1.4-1.5zm4.9 22.3c-1.5 0-2.6.7-3.3 1.6V192h-2.6v12c0 1 0 2.2-.1 2.9h2.2l.1-1.5c.7 1.2 1.9 1.8 3.2 1.8 2.3 0 4.6-1.8 4.6-5.5.2-3.1-1.6-5.2-4.1-5.2zm-1 8.6c-1.1 0-2-.8-2.3-1.8 0-.2-.1-.4-.1-.6V201c0-.2 0-.5.1-.7.3-1.1 1.2-1.9 2.3-1.9 1.7 0 2.6 1.5 2.6 3.3 0 2.1-1 3.4-2.6 3.4zm-17.2-5.5c0 1.9-1.6 3.5-3.5 3.5s-3.5-1.6-3.5-3.5 1.6-3.5 3.5-3.5c1.9-.1 3.5 1.5 3.5 3.5z"/><path id="crash-dummy" class="st2" d="M327.9 142.3c1.5 2.8 1.7 5.9 1 8.7l-11-3.4 3.4-11c2.6 1 5.1 3 6.6 5.7zm-21.1 11.2c1.5 2.9 4.1 4.9 7 5.8l3.5-11.4-11.4-3.5c-.8 3-.6 6.2.9 9.1zm43.2-6.3v19.9h-.1l-1.3.7c-.6.3-11.1 5.5-29.2 5.5-9.2 0-20.5-1.3-33.4-5.4l-1.4-.4-.1-.3v-19.9c0-13.5 11-24.6 24.6-24.6h1.3c0-.7.2-1.3.7-1.7.2-.2.4-.3.6-.4V120c0-.2.1-.4.2-.5-.1-.1-.2-.1-.4-.2-.3-.1-.6-.3-.8-.4-.3-.1-.5-.3-.5-.6v-.3c-2.8 1.7-5.8 2.6-9.1 2.7h-.1c-2.5 0-4.1-1.5-4.4-4.3-.1-.7-.3-1.4-.5-2.1-.2-.7-.4-1.4-.5-2.1-.2-1.5-.3-2.9-.1-4.1v-.2c.1-.9.1-.9-.4-1.1-.9-.3-1.4-.9-1.6-1.5-.2-.7 0-1.5.5-2.3.2-.3.4-.7.7-1.1.3-.5.5-1 .9-1.4 1.6-2.2 2.4-4.4 2.6-7.1.2-4.4 2.6-8.3 6.7-10.8 3.5-2.2 7.5-3.4 11.7-3.4 2.5 0 5.3.4 8.1 1.2.9.3 1.6.7 2 1.4.2-.1.4 0 .6 0 4.7 2.1 7.3 4.9 8 8.8.7 3.5.9 7 .7 10.4-.2 3.7-3.2 6.5-7.2 6.5-.7 0-1.4-.1-2.1-.3-.1.1-.3.2-.5.2h-.6l.2.5c.2.4 0 .8-.3 1.1h.3c.7 0 1.4.7 1.6 1 .3.4.7.9.6 1.5-.1.9-1.2 2.4-2.3 2.4h-.3c.1.3 0 .6-.2.8-.1.1-.1.2-.2.3h.1c2.5 0 3 1.5 3 2.4 0 .8-.2 1.4-.6 1.9-.7.7-1.6.8-2.3.8v.2c2.5 0 2.9 1.6 2.9 2.5v.1c12.2 1.1 21.9 11.6 21.9 24.3zm-37.4-51.8c1.8 3.3 5.9 4.6 9.3 2.8 3.3-1.8 4.6-5.9 2.8-9.3-1.8-3.3-5.9-4.6-9.3-2.8-3.3 1.8-4.6 5.9-2.8 9.3zm16.4 46.3c-3.4-6.4-11.4-8.9-17.9-5.4s-8.9 11.4-5.4 17.9c3.4 6.4 11.4 8.9 17.9 5.4 6.4-3.4 8.8-11.5 5.4-17.9zm-12.2-43.6l1.8-5.9-5.9-1.8c-.5 1.5-.3 3.2.5 4.7s2.1 2.5 3.6 3zm7.3-8.9c-.8-1.4-2-2.4-3.5-2.9l-1.7 5.7 5.7 1.7c.4-1.4.3-3-.5-4.5z"/><circle id="OUTLINE" class="st4" cx="200" cy="200" r="200"/></svg>