<svg xmlns="http://www.w3.org/2000/svg" width="44.678" height="44.678" viewBox="0 0 44.678 44.678"><g><path d="M13.16 18.613l-.094-1.042c.164-.093.32-.195.468-.31l.78.452.888-.233 1.006-1.74-.233-.887s-.67-.39-1.005-.58c-.01-.194-.03-.386-.07-.57.267-.23.797-.682.797-.682v-.916l-1.31-1.526h-.916s-.434.372-.65.56c-.237-.115-.486-.21-.746-.28l-.063-.775-.647-.648-2.003.162-.648.648.082 1.02c-.196.112-.38.238-.554.38-.28-.13-.846-.388-.846-.388l-.887.232-.84 1.827-.028.125.262.762.982.45c.014.215.047.424.1.63-.25.21-.748.634-.748.634v.916l1.3 1.534s.754.09.795.067l.123-.067.712-.604c.2.09.41.165.626.224l.075.81.648.647 2-.183.647-.65zm-2.345-2.152c-1.116 0-2.02-.904-2.02-2.02 0-1.117.904-2.022 2.02-2.022 1.118 0 2.023.905 2.023 2.022 0 1.115-.905 2.02-2.023 2.02zM18.718 25.188s-.048-.525-.07-.79c.123-.07.242-.146.353-.232.198.112.59.34.59.34l.672-.175.76-1.314-.175-.67-.76-.44c-.006-.145-.022-.29-.052-.43l.602-.515v-.692l-.99-1.154h-.694s-.33.28-.493.422c-.178-.086-.367-.157-.563-.21l-.047-.587-.49-.49-1.514.122-.49.49.062.77c-.148.085-.29.18-.42.287-.21-.1-.638-.293-.638-.293l-.67.176-.635 1.382-.022.094.2.575.74.34c.012.163.037.32.078.476l-.565.48v.693l.982 1.16s.57.068.602.05l.09-.05.54-.456c.15.067.308.125.473.17.02.203.056.61.056.61l.49.49 1.51-.14.488-.49zm-1.773-1.627c-.844 0-1.528-.685-1.528-1.528 0-.844.684-1.528 1.528-1.528.845 0 1.53.685 1.53 1.528s-.685 1.53-1.53 1.53zM32.653 6.125H13.4c-1.612 0-1.612 2.5 0 2.5h19.253c1.612 0 1.612-2.5 0-2.5zM32.653 12.042H23.4c-1.612 0-1.612 2.5 0 2.5h9.253c1.612 0 1.612-2.5 0-2.5zM7.198 3h29.055v15.867h3V0H4.198v9.784h3zM33.97 35.793c-.004-.32-.03-.637-.084-.943l1.35-1.082.05-1.51-2.077-2.587-1.515-.048-1.104.887c-.382-.2-.788-.37-1.212-.5-.02-.428-.064-1.283-.064-1.283l-1.035-1.102-3.31.16-1.104 1.035s.055 1.125.08 1.687c-.328.173-.64.372-.933.593l-1.374-.683-1.476.337-1.48 2.97-.054.203.392 1.27 1.595.792c.012.356.056.704.133 1.042-.423.334-1.27 1.01-1.27 1.01l-.048 1.508 2.06 2.598s1.24.188 1.308.153l.204-.103 1.207-.957c.325.16.665.295 1.02.402l.08 1.338 1.034 1.102 3.305-.194 1.103-1.032-.1-1.724c.273-.146.54-.308.79-.487l1.263.786 1.475-.337 1.753-2.813-.338-1.476c.002 0-1.082-.675-1.625-1.01zm-6.965 3.386c-1.84-.06-3.285-1.6-3.225-3.44.06-1.843 1.6-3.285 3.44-3.227 1.84.06 3.284 1.6 3.226 3.442-.06 1.84-1.6 3.283-3.44 3.224zM40.116 28.74s-1.166-.725-1.75-1.086c-.004-.344-.03-.684-.09-1.013l1.453-1.164.052-1.625-2.234-2.78-1.627-.054s-.792.635-1.187.955c-.412-.216-.848-.398-1.307-.538-.02-.46-.066-1.38-.066-1.38l-1.11-1.186-3.563.174-1.186 1.112s.06 1.21.087 1.813c-.354.187-.69.4-1.002.64-.492-.246-1.48-.734-1.48-.734l-1.584.364-1.592 3.192-.06.22.423 1.366 1.336.662.66-.62.27-.25.367-.018 2.656-.13c.464-1.505 1.876-2.583 3.526-2.53 1.982.064 3.535 1.72 3.47 3.7-.015.534-.155 1.032-.378 1.48l1.865 2.324.232.29-.012.37-.03.957.757.47 1.586-.362 1.883-3.025-.364-1.59zM5.927 25.19c.294 0 .537-.08.73-.24.193-.156.34-.38.436-.67.097-.29.146-.67.146-1.144 0-.398-.032-.716-.09-.95-.062-.236-.146-.435-.25-.6-.11-.163-.243-.29-.405-.375-.163-.085-.352-.13-.568-.13-.293 0-.536.08-.73.237-.192.157-.338.38-.437.67-.096.292-.146.673-.146 1.15 0 .755.132 1.3.396 1.636.223.277.528.416.917.416zm-.55-3.412c.136-.192.318-.29.545-.29.23 0 .422.11.578.327.154.218.232.658.232 1.32 0 .66-.078 1.098-.232 1.316-.155.222-.346.33-.572.33-.227 0-.418-.108-.572-.327-.155-.22-.232-.658-.232-1.318-.002-.658.083-1.112.254-1.357zM8.843 21.62c-.207.184-.45.34-.725.472v.477c.154-.057.328-.142.52-.255.194-.113.35-.228.468-.34v3.147H9.6v-4.04h-.32c-.084.174-.23.352-.437.537zM6.993 27.587c-.107-.163-.24-.29-.404-.375-.164-.086-.353-.13-.57-.13-.29 0-.535.078-.728.236-.193.156-.337.38-.436.67-.097.29-.147.673-.147 1.147 0 .756.132 1.302.397 1.636.22.28.525.42.914.42.295 0 .54-.08.733-.24.19-.157.337-.382.435-.67.097-.29.146-.67.146-1.145 0-.397-.03-.716-.09-.95-.062-.236-.146-.434-.25-.598zm-.4 2.866c-.155.22-.345.33-.572.33s-.416-.11-.57-.33c-.156-.217-.23-.657-.23-1.317 0-.66.082-1.112.252-1.358.135-.19.317-.29.544-.29.23 0 .423.11.578.327.155.22.232.658.232 1.32 0 .66-.078 1.1-.233 1.318zM9.695 31.12v-4.04h-.32c-.084.175-.23.354-.437.54-.206.184-.448.34-.724.472v.477c.153-.057.327-.142.52-.255s.35-.228.467-.34v3.147h.495zM12.403 31.12v-4.04h-.318c-.085.175-.232.354-.438.54-.206.184-.448.34-.724.472v.477c.152-.057.327-.142.52-.255s.35-.228.467-.34v3.147h.493zM15.952 27.587c-.107-.163-.24-.29-.404-.375-.163-.086-.352-.13-.567-.13-.292 0-.536.078-.73.236-.192.156-.336.38-.435.67-.097.29-.146.673-.146 1.148 0 .756.13 1.3.396 1.637.22.277.526.416.915.416.294 0 .538-.08.73-.24.194-.156.338-.38.436-.67.097-.29.147-.67.147-1.144 0-.398-.03-.716-.092-.95-.058-.237-.14-.435-.248-.6zm-.4 2.866c-.155.22-.345.33-.57.33-.23 0-.42-.11-.575-.33-.155-.217-.23-.657-.23-1.317 0-.66.085-1.112.253-1.358.137-.19.317-.29.544-.29.23 0 .423.11.578.327.155.22.232.658.232 1.32 0 .66-.076 1.1-.232 1.318zM6.993 34.332c-.107-.164-.24-.29-.404-.376-.164-.086-.353-.13-.57-.13-.29 0-.535.078-.728.236-.193.156-.337.38-.436.67-.097.29-.147.672-.147 1.148 0 .757.132 1.302.397 1.636.22.278.525.42.914.42.295 0 .54-.08.733-.24.19-.157.337-.382.435-.67.097-.29.146-.673.146-1.146 0-.396-.03-.716-.09-.95-.062-.235-.146-.434-.25-.598zm-.4 2.867c-.155.218-.345.327-.572.327s-.416-.108-.57-.328c-.156-.22-.23-.658-.23-1.32 0-.658.082-1.11.252-1.356.135-.19.317-.29.544-.29.23 0 .423.11.578.327.155.22.232.66.232 1.32s-.078 1.1-.233 1.32zM10.12 34.332c-.11-.164-.243-.29-.405-.376-.163-.086-.352-.13-.568-.13-.292 0-.536.078-.73.236-.192.156-.338.38-.437.67-.097.29-.146.672-.146 1.147 0 .756.132 1.3.396 1.635.222.278.526.418.915.418.294 0 .538-.078.73-.238.193-.157.34-.38.436-.672.098-.29.147-.67.147-1.144 0-.398-.03-.717-.09-.95-.06-.235-.143-.434-.248-.598zm-.4 2.867c-.156.218-.346.327-.573.327s-.418-.108-.572-.328c-.155-.22-.232-.658-.232-1.32 0-.658.085-1.11.255-1.356.135-.19.317-.29.544-.29.23 0 .423.11.578.327.154.22.232.66.232 1.32s-.08 1.1-.233 1.32zM13.243 34.332c-.106-.164-.24-.29-.402-.376-.164-.086-.353-.13-.567-.13-.292 0-.536.078-.73.236-.193.156-.338.38-.437.67-.097.29-.146.672-.146 1.147 0 .756.132 1.3.396 1.635.222.278.526.418.915.418.294 0 .54-.078.73-.238.194-.157.338-.38.436-.672.097-.29.147-.67.147-1.144 0-.398-.03-.717-.092-.95-.056-.235-.14-.434-.247-.598zm-.4 2.867c-.153.218-.345.327-.57.327-.228 0-.418-.108-.573-.328-.155-.22-.23-.658-.23-1.32 0-.658.084-1.11.253-1.356.136-.19.318-.29.544-.29.23 0 .423.11.578.327.155.22.233.66.233 1.32s-.08 1.1-.234 1.32zM15.948 37.865v-4.04h-.318c-.086.175-.233.354-.44.538-.207.186-.448.343-.724.474v.478c.154-.058.327-.143.52-.256s.35-.23.467-.34v3.147h.495v-.002zM18.615 40.912c-.207.185-.45.342-.725.473v.477c.154-.057.328-.14.52-.254.194-.112.35-.227.468-.34v3.147h.494v-4.04h-.32c-.085.173-.23.352-.437.537zM6.993 41.076c-.107-.163-.24-.288-.404-.375-.164-.087-.353-.13-.57-.13-.29 0-.535.078-.728.235-.193.157-.337.382-.436.67-.097.292-.147.675-.147 1.15 0 .756.132 1.3.397 1.636.22.277.525.417.914.417.295 0 .54-.078.733-.236.19-.157.337-.383.435-.673.097-.29.146-.67.146-1.142 0-.4-.03-.718-.09-.95-.062-.236-.146-.435-.25-.6zm-.4 2.867c-.155.22-.345.33-.572.33s-.416-.11-.57-.33c-.156-.22-.23-.656-.23-1.316s.082-1.113.252-1.36c.135-.19.317-.286.544-.286.23 0 .423.108.578.327.155.217.232.657.232 1.32 0 .658-.078 1.097-.233 1.316zM8.938 41.107c-.207.186-.448.342-.724.474v.478c.153-.057.327-.14.52-.254.193-.112.35-.228.467-.34v3.147h.495v-4.04h-.32c-.084.175-.23.353-.437.537zM11.647 41.107c-.207.186-.448.342-.724.474v.478c.152-.057.327-.14.52-.254.193-.112.35-.228.467-.34v3.147h.494v-4.04h-.318c-.086.175-.233.353-.44.537zM15.952 41.076c-.107-.163-.24-.288-.404-.375-.163-.087-.352-.13-.567-.13-.292 0-.536.078-.73.235s-.336.382-.435.67c-.097.292-.146.675-.146 1.15 0 .756.13 1.3.396 1.636.22.277.526.417.915.417.294 0 .538-.078.73-.236s.338-.383.436-.673c.097-.29.147-.67.147-1.142 0-.4-.03-.718-.092-.95-.058-.236-.14-.435-.248-.6zm-.4 2.867c-.155.22-.345.33-.57.33-.23 0-.42-.11-.575-.33-.155-.22-.23-.656-.23-1.316s.085-1.113.253-1.36c.137-.19.317-.286.544-.286.23 0 .423.108.578.327.155.217.232.657.232 1.32 0 .658-.076 1.097-.232 1.316z"/></g></svg>