<svg xmlns="http://www.w3.org/2000/svg" width="396.494" height="396.494" viewBox="0 0 396.494 396.494"><path d="M304.42 330.9H261.2c-1.56 0-2.833-1.272-2.833-2.833v-10.52c0-1.56-1.275-2.834-2.834-2.834h-60.475c-1.56 0-2.835 1.275-2.835 2.834v10.52c0 1.56-1.275 2.834-2.835 2.834h-32.49c-1.56 0-2.836 1.276-2.836 2.835v12.17c0 1.56 1.275 2.834 2.835 2.834h147.52c1.56 0 2.835-1.276 2.835-2.835v-12.17c.002-1.556-1.273-2.834-2.832-2.834zM377.032 46.368h-308.4c-10.73 0-19.46 8.73-19.46 19.462v50.76c0 6.712-.497 7.66 4.005 7.66h7.72c3.778 0 3.003-.948 3.003-7.784V65.83c0-2.565 2.168-4.733 4.732-4.733h308.4c2.563 0 4.73 2.168 4.73 4.733v190h-219.87s-7.748-.015-7.748 10.005V289.6c0 10.007 8 10.007 8 10.007h214.888c10.73 0 19.46-8.73 19.46-19.46V65.83c0-10.73-8.73-19.462-19.46-19.462zm-154.2 236.436c-4.844 0-8.77-3.926-8.77-8.768s3.926-8.77 8.77-8.77c4.84 0 8.768 3.928 8.768 8.77s-3.927 8.768-8.767 8.768zM124.125 141.633H12.56c-6.928 0-12.56 5.633-12.56 12.56v183.372c0 6.926 5.632 12.56 12.56 12.56h111.565c6.923 0 12.56-5.634 12.56-12.56V154.193c0-6.927-5.637-12.56-12.56-12.56zm-69.545 12.81h27.523c1.313 0 2.38 1.064 2.38 2.38 0 1.315-1.066 2.38-2.38 2.38H54.58c-1.315 0-2.38-1.065-2.38-2.38 0-1.316 1.065-2.38 2.38-2.38zm13.595 186.86c-3.59 0-6.5-2.91-6.5-6.5s2.91-6.5 6.5-6.5 6.5 2.91 6.5 6.5-2.91 6.5-6.5 6.5zm57.718-19.103c0 1.676-1.342 3.047-2.98 3.047H13.773c-1.638 0-2.98-1.37-2.98-3.047V169.825c0-1.676 1.343-3.046 2.98-3.046h109.14c1.64 0 2.98 1.37 2.98 3.045V322.2z"/></svg>